<?xml version="1.0" standalone="no"?>
<!DOCTYPE svg PUBLIC "-//W3C//DTD SVG 1.1//EN" "http://www.w3.org/Graphics/SVG/1.1/DTD/svg11.dtd" >
<!--
2013-9-30: Created.
-->
<svg>
<metadata>
Created by iconfont
</metadata>
<defs>

<font id="iconfont" horiz-adv-x="1024" >
  <font-face
    font-family="iconfont"
    font-weight="500"
    font-stretch="normal"
    units-per-em="1024"
    ascent="896"
    descent="-128"
  />
    <missing-glyph />
    
    <glyph glyph-name="bixuanxiangjiaobiao" unicode="&#59302;" d="M536 810.3l40-318.9c1.8-14 14.9-23.6 28.8-21.1l308.7 43.1c29.1 5.3 41-35.9 13.6-47L619.9 338.8c-14.1-5.7-19.7-22.6-11.8-35.6l165-255.3c15.6-25.6-19.6-51.5-39.4-29L537.1 234.5c-9.8 11.1-27.1 11.1-36.9 0L297 11c-19.7-22.4-54.7 3-39.6 28.7l158.1 263.9c7.5 12.7 2.1 29.1-11.4 35l-316.5 121c-26.9 11.6-14.5 52.1 14.2 46.7L421 467.5c14-2.6 27.3 7.2 28.9 21.3L487.2 810c3.3 28.9 45.1 29.1 48.8 0.3z"  horiz-adv-x="1024" />

    
    <glyph glyph-name="bangzhutishi" unicode="&#59303;" d="M511.3 831.1c-247.2 0-447.6-200.4-447.6-447.6 0-247.2 200.4-447.6 447.6-447.6S959 136.2 959 383.4 758.6 831.1 511.3 831.1z m0-839.3c-216.3 0-391.6 175.3-391.6 391.6S295 775 511.3 775s391.6-175.3 391.6-391.6c0-216.2-175.3-391.6-391.6-391.6zM502 624.2c-65.9-2.2-135-34.6-157.7-135 54-7.6 79.9-10.8 79.9-10.8s14 86.4 100.5 76.7c86.4-9.7 67-74.5 58.3-87.5-8.6-21.6-88.6-73.4-101.5-104.8-13-31.3-11.9-89.6-11.9-89.6h77.8s-4.3 61.6 38.9 87.5c43.2 25.9 116.7 101.5 84.2 173.9-51.9 83.1-102.6 91.8-168.5 89.6zM468.5 212.3h81v-88.6h-81z"  horiz-adv-x="1024" />

    
    <glyph glyph-name="cebianlancaipiaobaobiao" unicode="&#59304;" d="M320-32.2c-16.9 0-29.2 12.8-29.2 30.4s12.3 30.4 29.2 30.4h165.4V160.1c0 27.9 21.9 50.7 48.7 50.7h360c6.2 0 9.7 3.6 9.7 10.1v506c0 4.5-5.3 10.1-9.7 10.1h-759c-6.2 0-9.7-3.6-9.7-10.1v-506.1c0-4.5 5.3-10.1 9.7-10.1h77.5c1 0.3 3 1.4 4.2 2.4l117.9 227.1c8.2 15.6 22.4 24.9 38.2 24.9 11.6 0 22.9-5.1 31.9-14.5l0.2-0.2L510.8 333l83.3 149.9c-19 24.1-29 53.1-29 84.2 0 72.6 56.8 131.6 126.6 131.6S818.3 639.6 818.3 567c0-72.3-56.3-131.1-125.7-131.6-4.8-0.9-9.7-1.3-14.7-1.3-12.6 0-25.6 2.9-38.6 8.5l-88.9-159.9c-7.8-14.8-21.5-23.6-36.6-23.6-12 0-23.9 5.4-33.3 15.3l-0.2 0.2-105.6 117.3-108.3-208.1C256.7 163.9 234 150 211 150h-77.8c-18.6 0-35.8 7.3-48.5 20.4C72 183.6 65 201.5 65 220.9v506c0 19.4 7 37.3 19.7 50.5 12.7 13.2 29.9 20.4 48.5 20.4h759c18.6 0 35.8-7.3 48.5-20.4 12.7-13.2 19.7-31.1 19.7-50.5v-506.1c0-19.4-7-37.3-19.7-50.5-12.7-13.1-29.9-20.3-48.5-20.3H543.9v-121.3h165.4c16.9 0 29.2-12.8 29.2-30.4s-12.3-30.4-29.2-30.4H320z m369.8 666c-37.5 0-68.1-31.8-68.1-70.8s30.5-70.8 68.1-70.8c37.5 0 68.1 31.8 68.1 70.8s-30.6 70.8-68.1 70.8z"  horiz-adv-x="1024" />

    
    <glyph glyph-name="cebianlancaozuorizhi" unicode="&#59305;" d="M259.328 318.08h510.5c17.6-0.7 32.4 12.9 33.2 30.6 0.7 17.6-12.9 32.5-30.5 33.3h-513.2c-17.6 0.7-32.4-12.9-33.2-30.6-0.7-17.6 12.9-32.5 30.5-33.3h2.7z m0 0v-191.5h510.5c17.6 0.7 31.2 15.6 30.5 33.3-0.7 16.6-13.9 29.9-30.5 30.6h-510.5c-17.6-0.7-31.2-15.6-30.5-33.3 0.7-16.6 13.9-29.9 30.5-30.6v191.5zM450.028 702.78h159.3c17.6 0.7 31.2 15.6 30.5 33.2-0.7 16.6-13.9 29.9-30.5 30.6h-159.4c-17.6-0.7-31.2-15.6-30.5-33.2 0.7-16.7 14-29.9 30.6-30.6zM847.328 766.58h-46.7c-17.6 0.7-32.4-12.9-33.2-30.6-0.7-17.6 12.9-32.5 30.5-33.2H847.328c5.6 0 16.9-12.2 16.9-31.9v-95.8h-701.2v95.8c-0.2 17.5 13.8 31.7 31.2 31.9h64.3c17.6-0.7 32.4 12.9 33.2 30.6 0.7 17.6-12.9 32.5-30.5 33.2h-67c-52.6-0.2-95.1-43-95.1-95.8v-639.3c0.2-52.8 42.9-95.5 95.5-95.8h637.6c52.6 0.2 95.3 43 95.5 95.8v639.3c3.6 48.5-32.1 91-80.4 95.8z m16.9-735.1c0-17.6-14.2-31.9-31.7-31.9h-637.7c-17.6 0-31.8 14.2-31.9 31.8v479.6h701.3v-479.5zM704.928 670.78c17.6 0 31.8 14.2 31.9 31.8V798.48c0.7 17.6-12.9 32.5-30.5 33.3-17.6 0.7-32.4-12.9-33.2-30.6v-98.5c-0.1-17.5 14.1-31.8 31.8-31.9-0.1 0 0 0 0 0z m0 0h-350.7c17.6 0 31.8 14.2 31.9 31.8V798.48c0.7 17.6-12.9 32.5-30.5 33.3-17.6 0.7-32.4-12.9-33.2-30.6v-98.5c0-17.6 14.3-31.9 31.9-31.9h350.6z"  horiz-adv-x="1024" />

    
    <glyph glyph-name="cebianlancuizhangjilu" unicode="&#59306;" d="M699.9 382.7h44.6V500.9h160.4v43.4H744.5v45l160.4 0.7v44H771.7l93.4 127.9-36.6 24.1-106.3-146.5-106.5 146.3-37.1-23.4L672.3 634H539.2v-43.7h160.7v-45.4H539.2v-44.6h160.7zM873.5 264.5c-11.8 5.7-31.4 11.8-59 18.6-13.9 3.4-29.6 7-46.9 10.7-23.8 5.1-49.2 10.1-74.6 14.9-8.9 1.6-17.2 3.2-24.5 4.5-4.5 0.8-7.7 1.4-9.4 1.7l-13.3 2.3-69.2-69C496.3 281 418.4 361.6 374 450.5l80.2 81.6-3.7 14.2c-0.4 1.7-1.3 4.8-2.4 9.1-1.9 7.1-4 15.1-6.4 23.6-6.8 24.5-13.9 49.1-20.9 72-3.9 12.6-7.7 24.4-11.3 35.3-12.5 37.1-22.4 61.2-32.1 73.1-22.9 28.3-54.2 40.7-92.3 37.9-28.4-2.1-65.4-13.3-97.7-34.5-47.4-31.2-79-79.9-87.5-146.8-16.2-128.3 67.2-281.5 211.9-434 120.2-126.7 290.3-215.4 411-214.2 107.2 1.1 194.3 93.9 203.9 175 6.6 56.3-10.3 100.9-53.2 121.7z m1.7-115.8c-6.8-56.8-73.8-128.3-152.9-129.1-104.6-1-261.7 80.9-372.9 198.1-135 142.2-211.7 283.4-198 391.8 6.5 51.6 29.5 86.9 64.7 110.1 24.3 16.1 52.8 24.6 72.9 26.1 21.8 1.6 36.3-4.2 48.1-18.8 4.2-5.2 13.1-26.6 23.2-57.1 3.5-10.5 7.1-21.9 10.9-34.1 6.9-22.4 13.8-46.5 20.4-70.5 1.8-6.3 3.4-12.3 4.9-17.9l-84.8-86.2L319 445c50.8-112.7 150.6-216.2 255.7-251.7l15.3-5.1 73.3 73.1c6.2-1.1 12.9-2.4 20.1-3.7 25-4.7 50.1-9.7 73.3-14.7 16.8-3.6 31.9-7.1 45.3-10.4 24.1-6 41.3-11.3 48.8-14.9 20.1-9.6 28.6-32.4 24.4-68.9z"  horiz-adv-x="1024" />

    
    <glyph glyph-name="cebianlangongsirukuan" unicode="&#59307;" d="M764.5 638.1l-7.9-7.8c-9.3-9.3-9.3-24.3 0-33.5l57.7-57.3H445.8c-13.2 0-23.9-10.6-23.9-23.7v-11.1c0-13.1 10.7-23.7 23.9-23.7h368.5l-57.8-57c-9.4-9.2-9.4-24.2-0.1-33.5l7.8-7.8c9.3-9.3 24.4-9.4 33.8-0.1l112.4 110.8c9.4 9.3 9.4 24.3 0.1 33.6l-112 111.2c-9.5 9.2-24.6 9.2-34-0.1zM904.1 287.9H535.4l57.8 57.3a23.6 23.6 0 0 1 0 33.5l-7.9 7.8c-9.3 9.3-24.5 9.3-33.8 0l-112-111.2c-9.3-9.3-9.3-24.3 0.1-33.6L551.9 131c9.4-9.2 24.5-9.2 33.8 0.1l7.8 7.8c9.3 9.3 9.2 24.3-0.1 33.5l-57.7 56.9h368.4c13.2 0 23.9 10.6 23.9 23.7v11.1c0 13.2-10.7 23.8-23.9 23.8zM802.2 62.4h-11.1c-13.2 0-23.9-10.6-23.9-23.7v-20.2c0-13.1-10.7-23.7-23.9-23.7H180.8c-13.2 0-23.9 10.6-23.9 23.7V749.6c0 13.1 10.7 23.7 23.9 23.7h562.5c13.2 0 23.9-10.6 23.9-23.7v-22.3c0-13.1 10.7-23.7 23.9-23.7h11.1c13.2 0 23.9 10.6 23.9 23.7V808.1c0 13.1-10.7 23.7-23.9 23.7H148.6c-27.9 0-50.6-22.5-50.6-50.2V-40c0-13.1 10.7-23.7 23.9-23.7h680.3c13.2 0 23.9 10.6 23.9 23.7v78.7c0 13-10.7 23.7-23.9 23.7zM294.2 685.2c-13.2 0-23.9-10.6-23.9-23.7v-550.9c0-13.1 10.7-23.7 23.9-23.7h11.1c13.2 0 23.9 10.6 23.9 23.7V661.5c0 13.1-10.7 23.7-23.9 23.7h-11.1z"  horiz-adv-x="1024" />

    
    <glyph glyph-name="cebianlanhuiyuandengji" unicode="&#59308;" d="M755.9 561.1l111.5 72.2V774.2H154.7v-140.8L267.1 563c143.7 109.9 346 109.1 488.8-1.9z m-538.1-44.4l-107.7 76.1-3.5 5.6C101 607 98 617.1 98 627.3V777c0.3 30.4 25.7 54.9 56.9 54.8H871c31.3 0.2 56.8-24.4 57-54.8v-149.8c0-10.3-3-20.3-8.7-29l-3.5-5.6-110.9-77.9c123.7-139.3 112.4-348.9-25.6-474.9-72.6-67-168.9-104.2-269-103.9-205.5-4.3-375.7 154.3-380.3 354.4 0.2 83.4 31.4 163.8 87.8 226.4z m291.4 74.4c-175 3.6-319.9-131.5-323.9-301.9 8-174.2 159.6-309 338.4-301.2 167.5 7.4 301.6 138 309.2 301.2-0.3 80.8-34.6 157.9-94.9 213.4-61.8 57.1-143.7 88.7-228.8 88.5z m149.5-160.5c39.6-36.5 62-87.2 62.2-140.3-3.9-113.2-101.3-202-217.6-198.3-110.9 3.6-200 90.3-203.7 198.4 2.2 111.3 96.5 199.8 210.7 197.7 55.3 0.1 108.4-20.4 148.4-57.5zM356.4 290.5c4.5-82.8 77-146.4 162-142.1 78.8 4 141.7 65.3 145.8 142.1-0.2 37.9-16.4 74-44.8 100-29.5 27.1-68.5 42.2-109.1 42.1-82.7 2-151.6-61.5-153.9-142.1z"  horiz-adv-x="1024" />

    
    <glyph glyph-name="cebianlanjiajiankuan" unicode="&#59309;" d="M488.982 127.118c-19.1 0-34.5 15.4-34.6 34.5v90.5h-90.4c-19.1-0.8-35.2 14.1-35.9 33.2-0.8 19.1 14.1 35.2 33.2 35.9h92.5v56.6h-89.7c-19.1-0.8-35.2 14.1-35.9 33.2-0.8 19.1 14.1 35.2 33.2 35.9h93.8l-116.1 116.9c-13.4 14.1-12.8 36.5 1.3 49.9 6.4 6.1 14.9 9.5 23.7 9.7 9.2 0.1 17.9-3.7 24.3-10.3l103.4-103 98 102.2c6.5 6.5 15.1 10.4 24.3 10.9h0.7c8.8-0.2 17.1-3.6 23.5-9.6 6.6-6.3 10.3-15.1 10.3-24.3 0.2-9.3-3.3-18.2-9.6-25l-112.4-117.5h89c19.1-0.8 33.9-16.8 33.2-35.9-0.7-18-15.2-32.5-33.2-33.2h-92.2v-56.3h91.9c19.1-0.8 33.9-16.8 33.2-35.9-0.7-18-15.2-32.5-33.2-33.2h-91.9v-90.4c0-19.1-15.3-34.7-34.4-34.8zM488.282-63.182c-245.1-0.1-443.9 198.5-444 443.6 0 117.8 46.8 230.9 130.1 314.1 72.8 73.7 169.5 119.1 272.7 127.9h2.9c18.6-0.2 28.8-9.4 29-28v-1.5c0.1-17.9-26.9-35.4-44.7-36.5-205.9-20.1-347.4-206.8-327.3-412.7 20.2-205.9 213.8-366.1 419.7-346 178.3 17.5 323.9 165.7 341 344 1.5 18 10.5 34.8 28.5 34.6 9.9-0.1 19.2-4.4 25.8-11.8 6.6-7.2 9.8-16.8 8.8-26.5-21.4-228-213.3-402.1-442.5-401.2zM831.582 523.318c-18.9 0-34.3 14.9-34.3 33.4v78.6h-80.1c-18.9-0.7-34.9 13.7-35.6 32.2-0.8 18.5 14 34.1 32.9 34.9h82.9v79.8c0.8 18.5 16.7 32.9 35.6 32.2 17.9-0.7 32.2-14.7 32.9-32.2v-79.3h80.2c18.9 0.7 34.9-13.7 35.6-32.2 0.8-18.5-14-34.1-32.9-34.9H865.682v-77.6c0.4-18.9-14.9-34.5-34.2-35l0.1 0.1z"  horiz-adv-x="1024" />

    
    <glyph glyph-name="cebianlanzaixianzhifu" unicode="&#59310;" d="M869.3 216c-17.7 0-32-14.3-32-32v-69.2c0-17.6-12.8-32-28.5-32H156.6c-15.7 0-28.5 14.4-28.5 32V650.3c0 17.6 12.8 32 28.5 32h652.3c15.7 0 28.5-14.4 28.5-32v-69.2c0-17.7 14.3-32 32-32s32 14.3 32 32v69.2c0 52.9-41.5 95.9-92.4 95.9H156.6c-50.9 0-92.4-43.1-92.4-95.9v-535.5c0-52.9 41.5-95.9 92.4-95.9h652.3c50.9 0 92.4 43.1 92.4 95.9V184c0 17.6-14.3 32-32 32zM548.2 382.6c0-23.5 19.1-42.6 42.6-42.6s42.6 19.1 42.6 42.6-19.1 42.6-42.6 42.6-42.6-19.1-42.6-42.6zM864 531.4H509.6c-52.9 0-95.9-43.1-95.9-95.9v-105.6c0-52.9 43.1-95.9 95.9-95.9H864c52.9 0 95.9 43.1 95.9 95.9V435.4c0 52.9-42.9 96-95.9 96z m32-201.6c0-17.6-14.4-32-32-32H509.6c-17.6 0-32 14.4-32 32V435.4c0 17.6 14.4 32 32 32H864c17.6 0 32-14.4 32-32v-105.6z"  horiz-adv-x="1024" />

    
    <glyph glyph-name="cebianlanzaixianhuiyuan" unicode="&#59311;" d="M219.6-32c-14.6 0-26.4 13.4-26.5 30v73.5c-0.1 73.2 19.6 144.6 56.4 204.6 35.9 58.7 86.1 104 144.4 130.4l9.6 4.4-8.1 7.2c-45.7 40.2-72.5 102.3-72.5 168.1C324.6 705 410.5 799.8 514.7 797.8c101.8-1.9 183.9-95.6 185.6-211.7 0-65.8-26.8-127.9-72.5-168.1l-8.1-7.2 9.6-4.4c58.4-26.3 108.6-71.8 144.5-130.5 36.8-60 56.5-131.4 56.4-204.6v-73.5c-0.1-16.6-11.9-30-26.5-30l-584.1 0.2z m292.1 404.3c-146.1 0.4-264.8-134.2-265.5-300.9v-43.5h530.9v43.5c-0.7 166.7-119.4 301.3-265.4 300.9z m0 367.7c-74.5-0.6-134.4-70-133.8-155s61.4-153.3 135.8-152.6c74 0.6 133.8 69.3 133.8 153.7-0.3 85.2-61 154-135.7 153.8l-0.1 0.1zM89.9 78.3c-14.6-0.1-26.5 13.3-26.6 30v56.9C63.1 272.6 115.8 371 199.6 420l6.9 4-5.1 6.5c-26.1 32.4-40.7 74.8-40.7 118.9 0.4 96.9 68.8 175.7 153.7 177.1l-1.6-3c-13-19.4-23.2-41.1-30.1-64.3-53.2-21.1-81.4-87.5-62.9-148.2 9.2-30.3 29.1-55 54.7-68.1 10.5-4 17.7-15 18.1-27.6-0.4-13-8.1-24.3-19-28.1l-6.1-1.6c-88.8-25-151.2-115.8-151.3-220.1v-26.9H147c-3.1-19.8-4.8-39.9-5.1-60h-52v-0.3z m790.9 0c-0.3 20.1-2 40.2-5.1 60h30.7v26.9c-0.1 104.3-62.5 195.1-151.3 220.1l-6.1 1.6c-10.9 3.7-18.6 15-19 28.1 0.4 12.6 7.5 23.6 18 27.6 51.5 26.3 74.5 95.1 51.5 153.8-11.5 29.3-33.1 51.9-59.7 62.5-6.9 23.2-17.1 44.9-30.1 64.3l-1.6 3c85-1.4 153.3-80.1 153.7-177.1 0-44-14.5-86.4-40.6-118.8l-5.1-6.5 6.9-4c83.9-48.9 136.5-147.4 136.3-254.9V108c-0.1-16.6-11.9-30-26.5-30h-52.1l0.1 0.3z"  horiz-adv-x="1024" />

    
    <glyph glyph-name="cebianlanzhifufenzu" unicode="&#59312;" d="M817.4 216.7V659.4c0 77.5-60.9 138.3-138.3 138.3H236.3C158.8 797.8 98 736.9 98 659.4v-442.7c0-77.5 60.9-138.3 138.3-138.3H679c77.5 0 138.4 60.9 138.4 138.3z m-664.1 0V659.4c0 44.3 38.7 83 83 83H679c44.3 0 83-38.7 83-83v-442.7c0-44.3-38.7-83-83-83H236.3c-44.3 0-83 38.8-83 83zM900.4 576.4c-16.6 0-27.7-11.1-27.7-27.7V106c0-44.3-38.7-83-83-83H347c-16.6 0-27.7-11.1-27.7-27.7s11.1-27.7 27.7-27.7h442.7c77.5 0 138.3 60.9 138.3 138.3V548.8c0 16.6-11 27.6-27.6 27.6z"  horiz-adv-x="1024" />

    
    <glyph glyph-name="cebianlanzhifuguanli" unicode="&#59313;" d="M190.2 797.8h645.5c50.9 0 92.2-41.7 92.2-93v-465.2c0-51.4-41.3-93-92.2-93H190.2c-50.9 0-92.2 41.7-92.2 93V704.8c0 51.4 41.3 93 92.2 93z m-32.8-104.3v-438.8c0-23 18.5-41.7 41.3-41.7h625.7c22.8 0 41.3 18.7 41.3 41.7V693.5c0 23-18.5 41.7-41.3 41.7H198.7c-22.8 0-41.3-18.7-41.3-41.7z m-13.3-657.6h737.8c25.5 0 46.1-13 46.1-34.8 0-21.8-20.6-33.3-46.1-33.3H144.1c-25.5 0-46.1 11.5-46.1 33.3 0 21.8 20.6 34.8 46.1 34.8z m374.3 436.3c19.8 0 35.9-20.8 35.9-46.5v-46.5c0-25.7-16.1-46.5-35.9-46.5-19.8 0-35.9 20.8-35.9 46.5v46.5c0.1 25.7 16.1 46.5 35.9 46.5z m186.3 46.5c21.4 0 38.8-20.8 38.8-46.5v-93c0-25.7-17.4-46.5-38.8-46.5s-38.8 20.8-38.8 46.5v93c0 25.7 17.4 46.5 38.8 46.5z m-385.3 93.1c20.4 0 36.9-20.8 36.9-46.5v-186.1c0-25.7-16.5-46.5-36.9-46.5s-36.9 20.8-36.9 46.5V565.3c-0.1 25.7 16.5 46.5 36.9 46.5z"  horiz-adv-x="1024" />

    
    <glyph glyph-name="daohanglangonggao" unicode="&#59314;" d="M853.3 253.9h-33.5l-7.9 245.6c0 176.9-129 332.6-296.6 332.6-167 0.2-302.9-143.4-304.1-321.5v-256.7h-38.5c-43.4 0-78.5-37.5-78.5-83.7s35.2-83.7 78.5-83.7h200v-2c0-81.9 62.3-148.3 139.1-148.3s139.1 66.4 139.1 148.3v2h202.3c43.4 0 78.5 37.5 78.5 83.7 0.1 46.3-35.1 83.7-78.4 83.7z m-255-167.4c0-51.1-38.8-92.5-86.8-92.5-47.9 0-86.8 41.4-86.8 92.5v2h173s0.5-1.7 0.5-2.2v0.2z m255 56.9H172.7c-14.5 0-26.2 12.5-26.2 27.9 0 15.4 11.7 27.9 26.2 27.9h64.7c14.5 0 26.2 12.5 26.2 27.9V500.6c-1.1 127.8 80.6 239.5 197.1 269.6 164.9 39.9 298.9-105.5 298.9-270.7l7.9-245.6V226c0-15.4 11.7-27.9 26.2-27.9h59.7c14.5 0 26.2-12.5 26.2-27.9 0-15.4-11.7-27.9-26.2-27.9v1.1z"  horiz-adv-x="1024" />

    
    <glyph glyph-name="daohanglanxinxi" unicode="&#59315;" d="M959.1 78.6V663.8c0 20 1.8 41.9-7.2 60-23.7 47.8-68.8 40.8-109.9 40.8H129.7c-9.8 0-19.2-2.4-27.6-6.7-2.8-1.1-5.4-2.7-7.7-4.6-19.1-13.4-31.8-37.2-31.8-64.1v-597.6c0-27.3 3.1-51.3 21.7-72.1 15-16.8 35.6-19.5 55.6-19.5H892c36.2 0 61.5 30 66.5 67.6 0.4 2.1 0.7 4.3 0.7 6.7v0.1c0 1.4 0 2.9-0.1 4.2zM912.5 685c0.4-9.9-1-21-1-29.3v-564.6L621.7 402.9 912.5 685z m-47.2 28.8C743.1 595.2 636.6 490.9 512.6 371.4L168 711.5h658c7.9 0 23.6 2.1 39.3 2.3z m-756-623.7c0.2 7 0.8 13.7 0.8 18.6V658.6c0 9.2-1.7 23.2 0.5 34.4l278.7-275.1-280-327.8zM823.2 53H146.9c-1.6 0-3.3-0.1-5-0.1l282.3 330.6 70.6-69.7c11-10.8 24.1-10.6 35.1 0l56.5 54.8 294.8-317c-21-2.6-47.1 1.4-58 1.4z"  horiz-adv-x="1024" />

    
    <glyph glyph-name="guanbi" unicode="&#59316;" d="M513.1 430.4L155.6 787.9c-13.2 13.1-34.5 13.1-47.7 0-13.2-13.1-13.2-34.4-0.1-47.5l0.1-0.1 357.5-357.5-357.5-357.5c-13.1-13.2-13.1-34.5 0-47.7 13.1-13.2 34.4-13.2 47.5-0.1l0.1 0.1L513 335.1l357.5-357.5c13-13 34.5-13.1 47.7 0 13.2 13.1 13.2 34.4 0.1 47.5l-0.1 0.1-357.5 357.6 357.5 357.5c13.1 13.2 13.1 34.5 0 47.7-13.1 13.2-34.4 13.2-47.5 0.1l-0.1-0.1-357.5-357.6z"  horiz-adv-x="1024" />

    
    <glyph glyph-name="cebianlandailidengji" unicode="&#59317;" d="M511.7 609.9c-76.5 0-138.7-62.6-138.7-139.5s62.2-139.5 138.7-139.5 138.7 62.6 138.7 139.5-62.2 139.5-138.7 139.5z m0-225.3c-46.8 0-85 38.5-85 85.8s38.1 85.8 85 85.8c46.8 0 85-38.5 85-85.8s-38.2-85.8-85-85.8zM785.3 233.7c56.4 65.8 87.2 148.9 87.2 236.7 0 97-37.5 188.2-105.5 256.7-68.2 68.6-158.7 106.4-255 106.4s-187.2-37.8-255.3-106.4-105.5-159.8-105.5-256.7c0-88.7 31.4-172.4 88.7-238.6l-151.4-152 105.3-38.1 38.1-105.4 183.8 183.8c30.9-8.5 63.1-13 96.1-13 33.8 0 67 4.7 98.6 13.7L795-63.7l38.1 105.4 105.3 38.1-153.1 153.9zM253.8 34.1l-17.9 49.6-49.7 18 91.9 92.2c25.2-21.7 52.9-39.6 82.4-53.2L253.8 34.1zM511.7 161c-169.2 0-307 138.8-307 309.4 0 170.6 137.7 309.4 307 309.4s307-138.8 307-309.4S681 161 511.7 161z m279.5-77.3l-17.9-49.6-107.6 107.6c29.3 14 56.8 32 81.8 53.8l93.4-93.8-49.7-18z"  horiz-adv-x="1024" />

    
    <glyph glyph-name="huiyuanchaxunmore" unicode="&#59318;" d="M63.3 384a98 98 0 1 1 196 0 98 98 0 1 1-196 0ZM413.3 384a98 98 0 1 1 196 0 98 98 0 1 1-196 0ZM763.3 384a98 98 0 1 1 196 0 98 98 0 1 1-196 0Z"  horiz-adv-x="1024" />

    
    <glyph glyph-name="cebianlandailifenhong" unicode="&#59319;" d="M513 412.2c227.6 0 415 88.2 415 209.8S740.6 831.8 513 831.8 98 743.6 98 622s187.4-209.8 415-209.8z m0 53.3c-202.4 0-363.5 75.8-363.5 156.5S310.6 778.5 513 778.5 876.5 702.7 876.5 622 715.4 465.5 513 465.5z m394.4 4.2c13.4-20.9 20.6-43.5 20.6-67.5 0-121.6-187.4-209.8-415-209.8S98 280.6 98 402.2c0 23.9 7.3 46.5 20.6 67.5 12.8-10.7 26.9-20.8 42.2-30.2-7.4-12.1-11.4-24.6-11.4-37.2 0-80.7 161.1-156.5 363.5-156.5s363.5 75.8 363.5 156.5c0 12.6-3.9 25.1-11.4 37.2 15.4 9.4 29.6 19.5 42.4 30.2z m0-224c13.4-20.9 20.6-43.5 20.6-67.5 0-121.6-187.4-209.8-415-209.8S98 56.7 98 178.3c0 23.9 7.3 46.5 20.6 67.5 12.8-10.7 26.9-20.8 42.2-30.2-7.4-12.1-11.4-24.6-11.4-37.2 0-80.7 161.1-156.5 363.5-156.5s363.5 75.8 363.5 156.5c0 12.6-3.9 25.1-11.4 37.2 15.4 9.4 29.6 19.5 42.4 30.1z"  horiz-adv-x="1024" />

    
    <glyph glyph-name="huiyuanchaxunzaixian" unicode="&#59320;" d="M511.3 832.1c-247.4 0-447.9-200.5-447.9-447.9s200.5-447.9 447.9-447.9 447.9 200.5 447.9 447.9S758.7 832.1 511.3 832.1z m302.2-292.9L464.1 176.6c-12.4-17.4-36.6-21.5-54-9-1.9 1.4-3.7 2.9-5.3 4.6-1.1 1.4-2 2.9-2.9 4.5L209.2 376.1c-15.2 16-15.2 41.1 0 57.1 14.4 15.2 38.4 15.8 53.5 1.4 0.5-0.4 0.9-0.9 1.4-1.4l168.6-174.9 325 337.7c14.4 15.2 38.4 15.8 53.5 1.4 0.5-0.4 0.9-0.9 1.4-1.4 15.3-15.7 15.7-40.6 0.9-56.8z"  horiz-adv-x="1024" />

    
    <glyph glyph-name="cebianlandailiyuming" unicode="&#59321;" d="M893.2 735.5H131.5c-37.2 0-67.3-30.1-67.3-67.3v-568c0-37.2 30.1-67.3 67.3-67.3h761.7c37.2 0 67.3 30.1 67.3 67.3v568c0 37.1-30.1 67.2-67.3 67.3z m11.6-635.3c0-6.4-5.2-11.6-11.6-11.6H131.5c-6.4 0-11.6 5.2-11.6 11.6V524.7h784.8v-424.5z m0 480.2H120v87.8c0 6.4 5.2 11.6 11.6 11.6h761.7c6.4 0 11.6-5.2 11.6-11.6v-87.8zM347.6 157.8c41.5 0 66.6 25.6 67.6 68.9h-47c-1-15.6-6.9-23.9-19.6-23.9-12 0-18.5 8.3-18.5 23.9v54.7c0 15.6 6.5 23.6 18.5 23.6 11.7 0 17.5-8 18.2-23.6h47c-1.4 42.9-23.3 68.6-66.2 68.6-40.8 0-64.9-25.6-64.9-68.6v-54.7c0-43.3 24.1-68.9 64.9-68.9zM646.2 277.9c0 18 7.6 27 18.9 27 11 0 16.8-8 16.8-30.5v-112.6h46.3V277.9c0 18 7.2 27 18.9 27 11 0 16.8-8 16.8-30.5v-112.6h46.3V274.5c0 49.9-19.2 75.5-52.2 75.5-18.2 0-32.6-7.6-41.5-21.8-8.9 14.5-22.7 21.8-40.5 21.8-18.9 0-33.3-8-42.6-23.2l-3.1 18.7h-30.5V162h46.3V277.9zM502.1 157.4c42.6 0 67.6 26.3 67.6 73.1v46.8c0 46.7-25.1 72.7-67.6 72.7s-67.6-26-67.6-72.7v-46.8c0-46.8 25-73.1 67.6-73.1z m-19.9 119.9c0 19 6.9 27 19.9 27 13 0 19.9-8 19.9-27v-46.8c0-19-6.9-27.4-19.9-27.4-13 0-19.9 8.3-19.9 27.4v46.8zM233.4 158.5c14.1 0 25.5 11.5 25.5 25.8 0 14.2-11.4 25.8-25.5 25.8s-25.5-11.5-25.5-25.7c0-14.4 11.4-25.9 25.5-25.9z"  horiz-adv-x="1024" />

    
    <glyph glyph-name="cebianlanfanshui" unicode="&#59322;" d="M959.7 42.7L810.5 153.3v-70.8H236c-34.9 0-63.2 28.3-63.2 63.2v652H98.3v-698.9c0-55.1 32.7-89.1 87.9-89.1h624.4v-65.9l149.1 98.9zM524.8 156.7h70.8V344.5h254.9v69H595.6V485l254.9 1v70H638.9l148.4 203.3L729 797.6 560.2 564.7 390.9 797.3 332 760.1 480.8 556H269.4v-69.5h255.4v-72H269.4v-71h255.4z"  horiz-adv-x="1024" />

    
    <glyph glyph-name="cebianlanyinhangqia" unicode="&#59323;" d="M847.5 740.7H177.1c-66-4.2-116.3-60.7-112.7-126.6v-462c-3.6-65.8 46.7-122.2 112.7-126.4h670.4c66 4.2 116.2 60.6 112.7 126.4v462c3.6 65.8-46.7 122.3-112.7 126.6z m-77.2-370.8c17.7-2.1 30.3-18 28.2-35.6-1.7-14.8-13.4-26.4-28.2-28.1h-98.9c-17.7 2.1-30.3 18-28.2 35.6 1.7 14.8 13.4 26.4 28.2 28.1h98.9z m0-98.1c17.7-2.1 30.3-18 28.2-35.6-1.7-14.8-13.4-26.4-28.2-28.1h-98.9c-17.7 2.1-30.3 18-28.2 35.6 1.7 14.8 13.4 26.4 28.2 28.1h98.9z m122 207.8v-333c1.8-25.7-16.9-48.3-42.6-51.3H171.4c-25.7 3-44.4 25.6-42.5 51.3v333h763.4z m0 72.4H128.8v68c-1.9 25.7 16.9 48.3 42.5 51.3h678.3c25.7-3 44.5-25.6 42.6-51.3v-43.6l0.1-24.4z"  horiz-adv-x="1024" />

    
    <glyph glyph-name="cebianlanzijinrizhi" unicode="&#59324;" d="M897.351 101.75h-86.5v57.5h86.5c13.8 0 25 10.9 25 24.3s-11.2 24.3-25 24.3h-30l15 32.6c6.5 11.8 2 26.5-10.2 32.9-12.2 6.3-27.4 1.9-33.9-9.9-0.6-1.1-1.2-2.3-1.6-3.5l-23.6-52h-42.9l-23.6 52c-6.5 11.8-21.7 16.3-33.9 9.9-10.8-5.6-15.8-18.1-11.8-29.3l15-32.6h-41.5c-13.8 0-25-10.9-25-24.3s11.2-24.3 25-24.3h86.5v-57.5h-86.5c-13.8 0-25-10.9-25-24.3s11.2-24.3 25-24.3h86.5v-64.5c0-13.4 11.2-24.3 25-24.3s25 10.9 25 24.3v64.5h86.4c13.8 0 25 10.9 25 24.3s-11.1 24.2-24.9 24.2zM592.951-6.05h-417.1c-10.6 0.1-19.1 8.4-19.2 18.7v743.6c0.1 10.3 8.7 18.6 19.2 18.7h674.2c10.6-0.1 19.1-8.4 19.2-18.7v-378.7c0-15.7 13.1-28.5 29.3-28.5 16.2 0 29.3 12.7 29.3 28.5v378.7c-0.2 41.6-35 75.3-77.9 75.6h-674.1c-42.9-0.2-77.7-33.9-77.9-75.6v-744.4c0.2-41.6 35-75.3 77.9-75.6h416.2c16.4 0.5 29.4 13.7 28.9 29.7-0.4 15-12.6 27.2-28 28zM766.351 701.75h-515.2c-16.2 0-29.3-12.7-29.3-28.5s13.1-28.5 29.3-28.5h515c16.2 0 29.3 12.7 29.3 28.5s-13.1 28.5-29.3 28.5h0.2z m29.3-166.5c-0.2 15.6-13.2 28.3-29.3 28.5h-515.2c-16.2 0-29.3-12.7-29.3-28.5 0-15.7 13.1-28.5 29.3-28.5h515c16.2 0.1 29.3 12.8 29.5 28.5z m-572-145.5c0-17 14.2-30.9 31.8-30.9s31.8 13.8 31.8 30.9c0 17-14.2 30.9-31.8 30.9s-31.8-13.8-31.8-30.9z m111.5 0c0-17 14.2-30.9 31.8-30.9s31.8 13.8 31.8 30.9c0 17-14.2 30.9-31.8 30.9s-31.8-13.8-31.8-30.9z m111.5 0c0-17 14.2-30.9 31.8-30.9s31.8 13.8 31.8 30.9c0 17-14.2 30.9-31.8 30.9s-31.8-13.8-31.8-30.9z"  horiz-adv-x="1024" />

    
    <glyph glyph-name="danchuangguanbi" unicode="&#59325;" d="M511.3 832.1c-247.9 0-448.9-201-448.9-448.9s201-448.9 448.9-448.9 448.9 201 448.9 448.9-201 448.9-448.9 448.9zM703.8 249c16.1-16.1 16.1-42.1 0-58.2s-42.1-16.1-58.2 0L511.3 325.1 377 190.8c-16.1-16.1-42.1-16.1-58.2 0s-16.1 42.1 0 58.2l134.3 134.3-134.3 134.3c-16.1 16.1-16.1 42.1 0 58.2s42.1 16.1 58.2 0l134.3-134.3 134.3 134.3c16.1 16.1 42.1 16.1 58.2 0s16.1-42.1 0-58.2L569.5 383.3 703.8 249z"  horiz-adv-x="1024" />

    
    <glyph glyph-name="danchuangtishi" unicode="&#59326;" d="M827.1 702.9C743.2 786.2 632.5 832 515 832h-3.1c-121.1-0.9-234.1-47.7-318.2-132-84.1-84.2-130-196.4-129.4-315.8C65.7 137.3 266.6-63.6 512-63.6c246.9 0 447.7 200.9 447.7 447.7 0 120.6-47.1 233.9-132.6 318.8zM512 124c-24.7 0-44.8 20-44.8 44.8s20 44.8 44.8 44.8c24.7 0 44.8-20 44.8-44.8 0-24.7-20.1-44.8-44.8-44.8z m35.9 158.9c0-19.8-16-35.9-35.9-35.9-19.8 0-35.9 16-35.9 35.9l-35.9 289.9c0 39.5 32.1 71.6 71.6 71.6s71.6-32.1 71.6-71.6l-35.5-289.9z"  horiz-adv-x="1024" />

    
    <glyph glyph-name="xuanzeriqi" unicode="&#59327;" d="M808.9 421.6H215c-12.3 0-22.4-10-22.4-22.4 0-12.3 10-22.4 22.4-22.4h593.8c12.3 0 22.4 10 22.4 22.4 0 12.4-10 22.4-22.3 22.4zM808.9 240.8H215c-12.3 0-22.4-10-22.4-22.4 0-12.3 10-22.4 22.4-22.4h593.8c12.3 0 22.4 10 22.4 22.4 0 12.5-10 22.4-22.3 22.4zM326.6 535.7c12.3 0 22.4 10 22.4 22.4V758.4c0 12.3-10 22.4-22.4 22.4-12.3 0-22.4-10-22.4-22.4V558c0-12.4 10.1-22.3 22.4-22.3zM384.6 679.8h254.1v-44.7H384.6zM886.3 679.8H754.6v-44.7h131.7c16.2 0 29.3-13.2 29.3-29.3v-521.5c0-16.2-13.2-29.3-29.3-29.3H137.4c-16.2 0-29.3 13.2-29.3 29.3V605.8c0 16.2 13.2 29.3 29.3 29.3h131.2v44.7H137.4c-40.8 0-74-33.2-74-74v-521.5c0-40.8 33.2-74 74-74h748.9c40.8 0 74 33.2 74 74V605.8c0.1 40.8-33.2 74-74 74zM696.7 535.7c12.3 0 22.4 10 22.4 22.4V758.5c0 12.3-10 22.4-22.4 22.4-12.3 0-22.4-10-22.4-22.4V558c0-12.4 10.1-22.3 22.4-22.3z"  horiz-adv-x="1024" />

    
    <glyph glyph-name="cebianlandailibaobiao" unicode="&#59328;" d="M827.3 830.7H198.7c-55.4 0-100.7-40.5-100.7-90v-715.8c0-49.5 45.3-90 100.7-90h628.6c55.4 0 100.7 40.5 100.7 90V740.7c0 49.5-45.3 90-100.7 90z m38-805.8c0-9-4-17.5-11.2-24-7.2-6.5-16.8-10-26.8-10H198.7c-10.1 0-19.6 3.6-26.8 10-7.2 6.5-11.2 15-11.2 24V740.7c0 9 4 17.5 11.2 24 7.2 6.5 16.8 10 26.8 10h628.6c10.1 0 19.6-3.6 26.8-10 7.2-6.5 11.2-15 11.2-24v-715.8zM757.4 124.4H268.6c-17.3 0-31.3-12.5-31.3-28s14-28 31.3-28h488.8c17.3 0 31.3 12.5 31.3 28s-14 28-31.3 28zM757.4 278.4H268.6c-17.3 0-31.3-12.5-31.3-28s14-28 31.3-28h488.8c17.3 0 31.3 12.5 31.3 28s-14 28-31.3 28zM395.5 519.9h86.2v-47.5h-86.2c-17.3 0-31.3-12.5-31.3-28s14-28 31.3-28h86.2v-29.2c0-14.4 14-26.1 31.3-26.1s31.3 11.7 31.3 26.1v29.2h86.2c17.3 0 31.3 12.5 31.3 28s-14 28-31.3 28h-86.2v47.5h86.2c17.3 0 31.3 12.5 31.3 28s-14 28-31.3 28h-73.1l81.7 73c12.2 10.9 12.2 28.7 0 39.6-12.2 10.9-32.1 10.9-44.3 0L513 615.4l-81.8 73.1c-12.2 10.9-32.1 10.9-44.3 0s-12.2-28.7 0-39.6l81.7-73h-73.1c-17.3 0-31.3-12.5-31.3-28s14-28 31.3-28z"  horiz-adv-x="1024" />

    
    <glyph glyph-name="cebianlandailichaxun" unicode="&#59329;" d="M94.4 314.4h181c16.7 0 30.2 13.5 30.2 30.2s-13.5 30.2-30.2 30.2h-181c-16.7 0-30.2-13.5-30.2-30.2s13.5-30.2 30.2-30.2z m866.3-252.2l-103.9 104c32.2 41.1 52.2 92 52.2 148.2 0 133.3-108.1 241.4-241.4 241.4S426.2 447.7 426.2 314.4 534.3 73 667.6 73c56.2 0 107.3 20.1 148.2 52.2l103.9-103.9c11.3-11.3 29.6-11.3 40.9 0 11.4 11.4 11.4 29.6 0.1 40.9zM797 188.1c-0.5-0.5-1.3-0.7-1.7-1.2-0.5-0.5-0.7-1.3-1.2-1.7-32.7-31.9-77.1-51.7-126.4-51.7-100 0-181 81-181 181s81 181 181 181 181-81.1 181-181.1c0-49.2-19.8-93.7-51.7-126.3zM94.4 676.5h543.1c16.7 0 30.2 13.5 30.2 30.2s-13.5 30.2-30.2 30.2H94.4c-16.7 0-30.2-13.5-30.2-30.2s13.5-30.2 30.2-30.2z m241.4-120.7H94.4c-16.7 0-30.2-13.5-30.2-30.2s13.5-30.2 30.2-30.2h241.4c16.7 0 30.2 13.5 30.2 30.2s-13.6 30.2-30.2 30.2z m0-362.1H94.4c-16.7 0-30.2-13.5-30.2-30.2s13.5-30.2 30.2-30.2h241.4c16.7 0 30.2 13.5 30.2 30.2s-13.6 30.2-30.2 30.2z"  horiz-adv-x="1024" />

    
    <glyph glyph-name="cebianlandenglurizhi" unicode="&#59330;" d="M817.4-63.7H264.6c-61.1 0-110.6 53.5-110.6 119.4V175.1h55.3v-119.4c0-33 24.8-59.7 55.3-59.7h552.8c30.5 0 55.3 26.7 55.3 59.7v657c0 33-24.8 59.7-55.3 59.7H264.6c-30.5 0-55.3-26.7-55.3-59.7v-119.4H154V712.7c0 66 49.5 119.4 110.6 119.4h552.8c61.1 0 110.6-53.5 110.6-119.4v-657c0-65.9-49.5-119.4-110.6-119.4zM578.1 570.6c-10.8 11.7-10.8 30.6 0 42.2 10.8 11.7 28.3 11.7 39.1 0l190.7-206c5.8-6.2 8.2-14.5 7.8-22.6 0.4-8.1-2.1-16.4-7.8-22.6l-190.7-206c-10.8-11.7-28.3-11.7-39.1 0s-10.8 30.6 0 42.2L723 354.4H71.1c-15.3 0-27.6 13.4-27.6 29.9s12.4 29.9 27.6 29.9H723L578.1 570.6z"  horiz-adv-x="1024" />

    
    <glyph glyph-name="cebianlanhuiyuanchaxun" unicode="&#59331;" d="M445.3 105.6c-172.1 0-311.5 139.5-311.5 311.5s139.5 311.5 311.5 311.5 311.5-139.5 311.5-311.5c-0.1-172-139.5-311.3-311.5-311.5m439.9-79.2L737.9 173.8c134.6 161.7 112.7 401.9-49 536.5S287 823 152.4 661.3s-112.7-401.9 49-536.5c141.2-117.6 346.3-117.6 487.5 0l147.5-147.6c13.5-13.5 35.4-13.5 48.9 0s13.5 35.4 0 48.9"  horiz-adv-x="1024" />

    
    <glyph glyph-name="cebianlanshouqi" unicode="&#59332;" d="M578.5 384l363.1 363.3c19.3 19.3 19.3 51-0.1 70.3-19.3 19.4-51 19.4-70.2 0L473.1 419.1c-19.3-19.4-19.3-51 0-70.3l398.1-398.5c19.3-19.4 51-19.4 70.2 0 19.3 19.4 19.3 51 0 70.3L578.5 384zM217.9 384L581 747.3c19.3 19.3 19.3 51-0.1 70.3-19.3 19.4-51 19.4-70.2 0L112.5 419.1c-19.3-19.4-19.3-51 0-70.3l398.1-398.5c19.3-19.4 51-19.4 70.2 0 19.3 19.4 19.3 51 0 70.3L217.9 384z"  horiz-adv-x="1024" />

    
    <glyph glyph-name="cebianlanxinzengdaili" unicode="&#59333;" d="M744.8 160.5V300.7c0 15.5 12.1 28 26.9 28 14.9 0 26.9-12.6 26.9-28v-140.2h134.7c14.9 0 26.9-12.6 26.9-28s-12.1-28-26.9-28H798.7v-140.2c0-15.5-12.1-28-26.9-28-14.9 0-26.9 12.6-26.9 28V104.5H610c-14.9 0-26.9 12.6-26.9 28s12.1 28 26.9 28h134.8zM637-63.7h80.8-565.9c-29.8 0-53.9 25.1-53.9 56.1V553L313.6 833.3h431.2c29.8 0 53.9-25.1 53.9-56.1v-336.4c0-15.5-12.1-28-26.9-28-14.9 0-26.9 12.6-26.9 28V777.3H367.5V497H151.9v-504.6H637c14.9 0 26.9-12.6 26.9-28 0-15.6-12-28.1-26.9-28.1zM178.8 553h134.7V749.2L178.8 553z"  horiz-adv-x="1024" />

    
    <glyph glyph-name="gengduo" unicode="&#59334;" d="M295.5 719.5l336.1-336.3-336-336.3c-17.8-17.9-17.8-47.2 0-65.1 17.8-17.9 47.2-17.9 65 0l368.6 368.9c17.8 17.9 17.8 47.2 0 65.1L360.6 784.7c-17.8 17.9-47.2 17.9-65 0-18-18-18-47.3-0.1-65.2z"  horiz-adv-x="1024" />

    
    <glyph glyph-name="chenggongtishi" unicode="&#59335;" d="M510.8 831.8c-247.5 0-448.1-200.6-448.1-448s200.6-448 448.1-448 448.1 200.6 448.1 448-200.7 448-448.1 448z m365.4-212.6C643 430.2 443.5 160.5 376.4 17.4l-307 359 85.6 60.5 181.8-163.3c84.5 87.7 271.4 261.8 521.7 392.3-0.1-0.1 16.1-45.5 17.7-46.7l0.1 0.1c0-0.1 0-0.1-0.1-0.1z"  horiz-adv-x="1024" />

    
    <glyph glyph-name="cebianlanzhankai" unicode="&#59336;" d="M447.5 384l-363-363.3c-19.3-19.3-19.3-51 0.1-70.3 19.3-19.4 51-19.4 70.2 0l398.1 398.5c19.3 19.4 19.3 51 0 70.3L154.8 817.6c-19.3 19.4-51 19.4-70.2 0-19.3-19.4-19.3-51 0-70.3L447.5 384zM808.1 384l-363-363.3c-19.3-19.3-19.3-51 0.1-70.3 19.3-19.4 51-19.4 70.2 0l398.1 398.5c19.3 19.4 19.3 51 0 70.3L515.4 817.6c-19.3 19.4-51 19.4-70.2 0-19.3-19.4-19.3-51 0-70.3L808.1 384z"  horiz-adv-x="1024" />

    
    <glyph glyph-name="jiankuan" unicode="&#59337;" d="M65.2 441.8h895.5v-116H65.2z"  horiz-adv-x="1024" />

    
    <glyph glyph-name="jiakuan" unicode="&#59338;" d="M959.1 442H569.3V831.8H453.4V442H63.6v-116h389.8v-389.7h115.9V326h389.8z"  horiz-adv-x="1024" />

    
    <glyph glyph-name="huiyuanchaxunchakan" unicode="&#59339;" d="M510.8 831.8c-247.5 0-448.1-200.6-448.1-448s200.6-448 448.1-448 448.1 200.6 448.1 448-200.7 448-448.1 448z m281-726.1c-10.2-10.2-26.8-10.2-37.1 0L643.1 217.5c-106.9-89-262.2-89-369.1 0-122.4 101.9-139 283.8-37.1 406.2s283.8 139 406.2 37.1 139-283.8 37.1-406.2L791.7 143l0.1-0.2c10.3-10.2 10.3-26.8 0-37.1zM458.6 674.6c-130.3 0-235.9-105.6-235.9-235.8S328.3 203 458.6 203c130.2 0.1 235.7 105.6 235.9 235.8 0 130.2-105.6 235.8-235.9 235.8z"  horiz-adv-x="1024" />

    
    <glyph glyph-name="huiyuanchaxunqiyongfanshui" unicode="&#59340;" d="M566.6 564.1c38.7 19 66.6 53.8 66.6 78.4 0 35.4-54.8 48.9-122.4 48.9-67.6 0-122.4-13.6-122.4-48.9 0-24.6 27.9-59.4 66.6-78.4-126.5-39.1-222.8-200.6-222.8-281 0-140.9 124.8-207 278.7-207 153.9 0 278.7 66.1 278.7 207-0.1 80.4-96.5 241.9-223 281z m19.3-257c13.5 0 24.4-10.9 24.4-24.4 0-13.5-10.9-24.4-24.4-24.4h-50.7v-46.6c0-13.5-10.9-24.4-24.4-24.4-13.5 0-24.4 10.9-24.4 24.4v46.6h-55.1c-13.5 0-24.4 10.9-24.4 24.4 0 13.5 10.9 24.4 24.4 24.4h55.1v26.6h-52.9c-13.5 0-24.4 10.9-24.4 24.4 0 13.5 10.9 24.4 24.4 24.4h34.2l-37.4 37.4c-9.5 9.5-9.5 25 0 34.5s25 9.5 34.5 0l46.2-46.2 46.2 46.2c9.5 9.5 25 9.5 34.5 0s9.5-25 0-34.5l-37.4-37.4H588c13.5 0 24.4-10.9 24.4-24.4 0-13.5-10.9-24.4-24.4-24.4h-52.9v-26.6h50.8zM510.8 831.8c-247.5 0-448.1-200.6-448.1-448s200.6-448 448.1-448 448.1 200.6 448.1 448-200.7 448-448.1 448z m0-804.5c-199 0-327.5 100.4-327.5 255.8 0 82.3 73.2 219.9 182.4 291.7-16.5 21.5-26.2 45.3-26.2 67.7 0 85 107.3 97.7 171.3 97.7 149 0 171.2-61.2 171.2-97.7 0-22.4-9.6-46.1-26.2-67.7C765 503 838.2 365.3 838.2 283.1c0.1-155.4-128.5-255.8-327.4-255.8z"  horiz-adv-x="1024" />

    
    <glyph glyph-name="huiyuanchaxunqiyongfanshui1" unicode="&#59341;" d="M510.8 831.8c-247.5 0-448.1-200.6-448.1-448s200.6-448 448.1-448 448.1 200.6 448.1 448-200.7 448-448.1 448zM394.2 515.2h117.6L409.1 644.7l36.4 28.9 111.8-140.8 111.9 140.8 36.4-28.9L603 515.3h121.2v-46.7H582.7v-94.7h141.5v-47H582.7V233H536l0.1 93.9H394.7v47h141.5v94.6h-142v46.7z m350.9-442.5v48.6H290.9c-32.4 0-58.7 26.3-58.7 58.7V663h46.7v-495h466.2v58l76.7-76.7-76.7-76.6z"  horiz-adv-x="1024" />

    
    <glyph glyph-name="huiyuanchaxunjiajiankuan" unicode="&#59342;" d="M62.7 383.8a448.1 448 0 1 1 896.2 0 448.1 448 0 1 1-896.2 0ZM492.582 161.618c-14.4 0-26.2 11.7-26.2 26.1v68.5h-68.4c-14.4-0.6-26.6 10.7-27.2 25.1-0.6 14.4 10.7 26.6 25.1 27.2h70v42.9h-67.9c-14.4-0.6-26.6 10.7-27.2 25.1-0.6 14.4 10.7 26.6 25.1 27.2h71.1l-87.9 88.5c-10.2 10.7-9.7 27.6 1 37.8 4.9 4.6 11.3 7.2 17.9 7.3 6.9 0 13.6-2.8 18.4-7.8l78.3-77.9 74.2 77.4c4.9 4.9 11.5 7.9 18.4 8.2h0.5c6.6-0.1 13-2.7 17.8-7.3 5-4.8 7.8-11.4 7.8-18.4 0.1-7-2.5-13.8-7.3-18.9l-85.2-89h67.4c14.4-0.6 25.7-12.7 25.1-27.2-0.5-13.6-11.5-24.6-25.1-25.1h-69.8v-42.7h69.6c14.4-0.6 25.7-12.7 25.1-27.2-0.5-13.6-11.5-24.6-25.1-25.1h-69.6v-68.5c0.2-14.4-11.4-26.2-25.9-26.2zM492.082 17.418c-185.7 0-336.2 150.4-336.3 335.9 0 89.2 35.4 174.8 98.5 237.9 55.1 55.8 128.3 90.2 206.5 96.8h2.2c14.1-0.2 21.8-7.1 21.9-21.2v-1.1c0-13.5-20.4-26.8-33.9-27.6-155.9-15.3-263.1-156.6-247.8-312.5 15.3-155.9 161.9-277.2 317.8-261.9 135 13.2 245.3 125.4 258.3 260.5 1.1 13.6 7.9 26.3 21.6 26.2 7.5-0.1 14.5-3.3 19.5-8.9 5-5.4 7.4-12.7 6.7-20-16.1-172.9-161.5-304.7-335-304.1zM752.082 461.518c-14.3 0-25.9 11.3-26 25.3v59.5h-60.7c-14.3-0.6-26.4 10.4-27 24.4-0.6 14 10.6 25.8 24.9 26.4H726.082v60.5c0.6 14 12.6 24.9 27 24.4 13.5-0.5 24.4-11.1 24.9-24.4v-60h60.8c14.3 0.6 26.4-10.4 27-24.4 0.6-14-10.6-25.8-24.9-26.4h-63v-58.9c0.3-14.3-11.3-26.2-25.9-26.5l0.1 0.1z"  horiz-adv-x="1024" />

    
    <glyph glyph-name="cebianlanhuiyuanbaobiao" unicode="&#59343;" d="M921.6 563c-2.4 4.1-5.6 8-9.7 11.6l-293.2 246c-10 8-19.3 11.8-28.9 11.5H142.9c-25.6 0-44.9-18.7-44.9-40.3v-810c0-25.9 24-46 51.3-46h721c32 0 56.1 23 57.7 50.4V545.8c0 6.4-2.4 12.4-6.4 17.2zM620.4 740.1l205.1-171.2-205.1-1.4V740.1zM163.7-6.7V774.6h392.6v-217.3c0-15.8 4.8-27.3 14.4-36 8-7.2 19.2-11.5 32-11.5l261.2 1.3v-517.9H163.7zM602.7 509.8zM686 187.6H277.5c-17.6 0-32-12.9-32-28.8s14.4-28.8 32-28.8H686c17.6 0 32 12.9 32 28.8s-14.3 28.8-32 28.8zM277.5 304.1h304.4c17.6 0 32 12.9 32 28.8s-14.4 28.8-32 28.8H277.5c-17.6 0-32-12.9-32-28.8s14.3-28.8 32-28.8zM277.5 476.8H473c17.6 0 30.4 12.9 30.4 28.8s-14.4 28.8-32 28.8H277.5c-17.6 0-32-12.9-32-28.8s14.3-28.8 32-28.8z"  horiz-adv-x="1024" />

    
    <glyph glyph-name="gengduozhankai" unicode="&#59344;" d="M848.7 600.1L512.3 263.9 176 600c-17.9 17.8-47.2 17.8-65.1 0-17.9-17.8-17.9-47.2 0-65l368.9-368.6c17.9-17.8 47.2-17.8 65.1 0L913.8 535c17.9 17.8 17.9 47.2 0 65-17.9 17.9-47.3 17.9-65.1 0.1z"  horiz-adv-x="1024" />

    
    <glyph glyph-name="gouxuan" unicode="&#59345;" d="M920.9 756.6c-263.8-161.6-455-366-540.8-468.2l-211 164.9-89-72.5 362.7-369.3C505.4 173 703.2 482.9 944 707.1c0-3.3-23.1 49.5-23.1 49.5z"  horiz-adv-x="1024" />

    
    <glyph glyph-name="gengduoshouqi" unicode="&#59346;" d="M176 166.3l336.3 336.1 336.3-336c17.9-17.8 47.2-17.8 65.1 0 17.9 17.8 17.9 47.2 0 65L544.9 600.1c-17.9 17.8-47.2 17.8-65.1 0L110.9 231.5c-17.9-17.8-17.9-47.2 0-65 17.9-18 47.3-18 65.1-0.2z"  horiz-adv-x="1024" />

    
    <glyph glyph-name="gongshangyinhang" unicode="&#59347;" d="M253.7 609h242.6v-71.8H325.6v-67h170.8v-194.8H325.6V194h170.8v-63.9H253.7V347.2h175.6v59.1H253.7V609z m517.3 0v-202.7H595.4v-59.1H771v-218.7H528.3v63.9h172.4v81.4H528.3V470.1h172.4v67H528.3V609H771zM65.4 382.3c0 247.4 199.5 447 447 447s447-199.5 447-447-199.5-447-447-447-447 199.6-447 447z m447-389.5c215.5 0 389.5 175.6 389.5 389.5s-174 389.5-389.5 389.5-389.5-174-389.5-389.5 173.9-389.5 389.5-389.5z"  horiz-adv-x="1024" />

    
    <glyph glyph-name="huiyuanchaxunbianji" unicode="&#59348;" d="M62.7 383.8a448.1 448 0 1 1 896.2 0 448.1 448 0 1 1-896.2 0ZM665.2 613.8l-59.6 59.5 36.2 36.2c14.7 14.7 38.4 14.7 53.1 0l6.4-6.4c14.7-14.7 14.7-38.4 0-53.1l-36.1-36.2z m-58.6-58.6L303.3 252c-4-4-8.8-7-14.1-8.9l-55.5-19.5c-6.5-2.3-13.7 1.2-16 7.7-0.9 2.5-0.9 5.2-0.2 7.8l17.4 57.4c1.8 5.9 4.9 11.3 9.2 15.7l302.7 302.6 59.6-59.5h0.2zM229.1 169.7h563.4c17.3 0 31.3-14 31.3-31.3s-14-31.3-31.3-31.3H229.1c-17.3 0-31.3 14-31.3 31.3 0 17.2 14 31.3 31.3 31.3z"  horiz-adv-x="1024" />

    
    <glyph glyph-name="huiyuanchaxunshuaxin" unicode="&#59349;" d="M841.2 525.5C784 660.8 651.4 748.7 504.6 748.7c-201.7 0.1-365.3-163.4-365.4-365.2s163.4-365.3 365.2-365.4h0.2c150.3 0 285.4 92.1 340.2 232.1 8.1 20.9 31.6 31.3 52.5 23.2 20.9-8.1 31.3-31.6 23.2-52.5 0-0.1-0.1-0.2-0.1-0.3-67-171.1-232-283.6-415.8-283.6C258-63 58.2 136.9 58.2 383.4S258 829.8 504.6 829.8c148.8 0 283.5-73.5 365.3-189.6v88.1c0 22.4 18.2 40.6 40.6 40.6 22.4 0 40.6-18.2 40.6-40.6v-243.5c0.1-22.3-18-40.5-40.3-40.6H707.5c-22.4 0-40.6 18.2-40.6 40.6 0 22.4 18.2 40.6 40.6 40.6h133.7v0.1z"  horiz-adv-x="1024" />

    
    <glyph glyph-name="huiyuanchaxunshengjidaili" unicode="&#59350;" d="M64.2 382.8a448.1 448 0 1 1 896.2 0 448.1 448 0 1 1-896.2 0ZM279.1 98.6c-11.6 0-21.1 9.9-21.2 22.2v54.6c-0.1 54.3 15.7 107.3 45.1 151.8 28.7 43.6 68.8 77.2 115.4 96.7l7.7 3.3-6.5 5.4c-36.5 29.8-57.9 75.9-57.9 124.7 1.4 88.2 70 158.5 153.3 157.1 81.4-1.4 147-70.9 148.3-157.1 0-48.8-21.4-94.9-57.9-124.7l-6.5-5.4 7.7-3.3c46.6-19.5 86.8-53.2 115.5-96.8 29.4-44.5 45.1-97.5 45.1-151.8v-54.6c-0.1-12.3-9.5-22.3-21.2-22.2l-466.9 0.1z m233.4 300c-116.8 0.3-211.7-99.6-212.2-223.2v-32.3h424.3v32.3c-0.4 123.6-95.3 223.5-212.1 223.2z m0 272.8c-59.5-0.5-107.4-51.9-106.9-115s49.1-113.7 108.6-113.2c59.2 0.5 106.9 51.4 106.9 114-0.3 63.2-48.8 114.2-108.5 114.1l-0.1 0.1z m-337-490.9c-11.7-0.1-21.2 9.9-21.3 22.2v42.2c-0.2 79.7 41.9 152.8 109 189.1l5.5 3-4.1 4.9c-20.9 24.1-32.5 55.5-32.6 88.2 0.3 71.9 55 130.3 122.9 131.4l-1.3-2.2c-10.4-14.4-18.5-30.5-24.1-47.7-42.6-15.7-65.1-64.9-50.3-110 7.4-22.5 23.2-40.8 43.8-50.5 8.4-2.9 14.2-11.1 14.5-20.5-0.3-9.7-6.4-18-15.2-20.8l-4.9-1.2c-71-18.6-120.8-85.9-120.9-163.3v-19.9H221c-2.5-14.7-3.9-29.6-4.1-44.5h-41.6l0.2-0.4z m632.1 0c-0.2 14.9-1.6 29.8-4.1 44.5h24.6v19.9c-0.1 77.4-50 144.8-120.9 163.3l-4.9 1.2c-8.8 2.8-14.9 11.1-15.2 20.8 0.3 9.4 6 17.5 14.4 20.5 41.1 19.5 59.6 70.6 41.2 114.1-9.2 21.7-26.4 38.5-47.7 46.3-5.5 17.2-13.7 33.3-24.1 47.7l-1.3 2.2c67.9-1 122.6-59.4 122.9-131.4 0-32.6-11.6-64.1-32.5-88.1l-4.1-4.9 5.5-3c67-36.3 109.1-109.4 108.9-189.1v-42.2c-0.1-12.3-9.5-22.3-21.2-22.2h-41.7l0.2 0.4z"  horiz-adv-x="1024" />

    
    <glyph glyph-name="cebianlanpingtaibaobiao" unicode="&#59351;" d="M173-32.2c-18.6 0-29.7 11.3-29.7 30.2s11.1 30.2 29.7 30.2h169.4V170.5H232.8c-49.4 0-89.5 40.8-89.5 91V737.4H93.1c-18.6 0-29.7 11.3-29.7 30.2s11.1 30.2 29.7 30.2h837.6c18.6 0 29.7-11.3 29.7-30.2s-11.1-30.2-29.7-30.2h-50.2v-475.9c0-50.2-40.2-91-89.5-91H681.3v-142.4h169.9c18.6 0 29.7-11.3 29.7-30.2s-11.1-30.2-29.7-30.2H173z m448.9 60.4V170.5H401.8v-142.4h220.1zM202.2 261.5c0-16.9 13.5-30.6 30.1-30.6h558.6c16.6 0 30.1 13.7 30.1 30.6V737.4H202.2v-475.9zM257.4 312.1c-5.7 0-11.5 2-17.4 5.8-7.9 5-12.7 11.3-14.3 18.7-1.6 7.4 0.1 15.1 5.2 23l104.2 165 0.4 0.8c1.5 2.7 2.4 4.3 4.5 7 7.4 10 15.9 12.1 21.7 12.1h2.5c6.5 0 12.7-2.9 18.4-8.8l0.3-0.3 0.3-0.3c1.1-1.3 2.1-2.4 3.1-3.6 1.1-1.3 2.3-2.6 3.6-4.2l98.2-118.5L635.9 649l0.1 0.2c0.8 1.2 1.4 2.1 1.9 2.9 1.7 2.6 2.7 3.9 5.3 6.6 5 5.3 12.4 8.5 20 8.5 9.9 0 18.9-5.2 24.6-14.2l114.3-165.6c5.5-8 7.5-15.8 6.2-23.4-1.3-7.2-5.7-13.5-12.9-18.5-6.1-4.3-12.3-6.6-18.2-6.6-8.8 0-16.5 4.7-22.9 13.9L665 582.2 520 346.5c-0.9-2.2-2.3-4.3-4.1-6.3-6.4-8.8-13.9-13.2-22.5-13.2h-1.5c-7.3 0.1-14.2 3.1-19.9 8.8-2.7 2.3-5.1 5.1-7.1 8.4l-97.9 119-85.8-136.1c-7.8-12.4-17.2-15-23.8-15z"  horiz-adv-x="1024" />

    
    <glyph glyph-name="nongyeyinhang" unicode="&#59352;" d="M490 594.7h44.7c9.9 0 17.8 8 17.9 17.9V828.2c-13.4 1.3-26.8 1.8-40.2 1.8-13.4 0-26.8-0.5-40.2-1.8v-215.7c-0.1-9.8 7.9-17.8 17.8-17.8zM619.9 817.1v-31.7h-0.1v-230c0-9.9-8-17.8-17.9-17.9h-62.5c-9.8 0-17.9-8-17.4-17.4v-131.7s0.9 10.3 20.5 10.3H644c11.3 0 20.5 9.2 20.4 20.5V706.7c121.1-57.1 205-180.4 205-323.3 0-182.1-136.1-332.3-312.1-354.4V223.2c0 9.9 8 17.9 17.9 17.9h71.5c9.8 0 17.9 8 17.4 17.4V390.1s-0.9-10.3-20.5-10.3H542.2h-0.1c-11.3 0-20.5-9.2-20.4-20.5v-118.7h-17.9V359.3c0 11.3-9.1 20.5-20.4 20.5H381.9c-19.6 0-20.5 10.3-20.5 10.3v-131.7c-0.5-9.4 7.6-17.4 17.4-17.4h71.4c9.9 0 17.9-8 17.9-17.9V29c-176.5 21.8-313 172.1-313 354.5 0 143.3 84.3 266.7 205.9 323.7v-288c0-11.3 9.1-20.5 20.4-20.5h101.5c19.6 0 20.5-10.3 20.5-10.3V520.1c0.4 9.4-7.6 17.4-17.5 17.4h-62.5c-9.9 0-17.8 8-17.9 17.9V817.5c-195.1-48.2-339.8-224.2-339.8-434C65.7 137 265.8-63 512.2-63s446.6 200 446.6 446.5c0 209.4-144.2 385.3-338.9 433.6z"  horiz-adv-x="1024" />

    
    <glyph glyph-name="zhongguoyinhang" unicode="&#59353;" d="M512.1 831.7c-234 0-432.8-187.5-447.2-420-16-234 158.7-444 391.1-474.5 232.4-28.9 453.6 131.4 496.9 362.2 20.8 112.2 0 234-60.9 330.2-60.9 93-155.5 160.3-262.9 187.5-38.4 9.7-78.5 14.6-117 14.6M164.3 382.9c0 168.3 125 319 291.7 346.2v-120.2c0-11.2 4.8-30.5-1.6-38.5-4.8-8-40.1-3.2-49.7-3.2-48.1 0-94.6-28.9-105.8-78.5-4.8-20.8-1.6-46.5-1.6-68.9 0-38.5-1.6-80.1 0-120.2 0-35.3 19.2-67.3 49.7-85 20.8-11.2 44.9-12.8 68.9-12.8 11.2 0 36.9 6.4 40.1-8 3.2-11.2 0-28.9 0-38.5v-115.4c-165 27.2-291.7 174.6-291.7 343m246.9-83.4c-16 0-11.2 36.9-11.2 48.1V439c0 8-3.2 20.8 1.6 27.2 8 11.2 44.9 4.8 57.7 4.8h113.8c11.2 0 51.3 8 54.5-8 4.8-17.6 0-40.1 0-59.3v-78.5c0-12.8 1.6-25.6-14.4-25.6h-202m155.4-259.8V160.1c0 14.4-8 40.1 11.2 41.7 24 1.6 49.7-3.2 73.7 3.2 51.3 12.8 73.7 59.3 73.7 107.4V429.3c0 30.5 3.2 59.3-12.8 86.6-25.6 41.7-68.9 49.7-113.8 49.7-6.4 0-24-3.2-28.9 1.6-6.4 4.8-1.6 17.6-1.6 24V729.1C734.9 701.8 860 551.2 860 382.9c-1.6-168.4-126.7-315.8-293.4-343.1"  horiz-adv-x="1024" />

    
    <glyph glyph-name="qiehuan" unicode="&#59354;" d="M735.9 324.7H287.4c-9.3 0-18.7-2.8-26.7-9-19.8-14.7-23.7-42.8-9-62.4L476-45.9c2.4-3.3 5.4-6.3 8.9-8.9 19.8-14.9 47.7-10.7 62.6 8.9l221.8 296c7.1 7.9 11.5 18.3 11.5 29.9 0 24.8-20 44.7-44.9 44.7zM286.7 443.7h448.5c9.3 0 18.7 2.8 26.7 9 19.8 14.7 23.7 42.8 9 62.4L546.6 814.3c-2.4 3.3-5.4 6.3-8.9 8.9C518 838 490 833.9 475.2 814.3l-221.8-296c-7.1-7.9-11.5-18.3-11.5-29.9-0.1-24.7 20-44.7 44.8-44.7z"  horiz-adv-x="1024" />

    
    <glyph glyph-name="huiyuanchaxunqiyonghuiyuan" unicode="&#59355;" d="M62.7 383.8a448.1 448 0 1 1 896.2 0 448.1 448 0 1 1-896.2 0ZM510.8 369.4c-102.2 0-184 86.5-184 192s81.8 192 184 192 184-86.5 184-192-81.8-192-184-192z m1.6 48.9c74 0 135 64.4 135 144.9s-61 144.9-135 144.9-135-64.4-135-144.9 61-144.9 135-144.9zM204.1 196.5c0 74.2 64.1 134.4 143.1 134.4H674.1c79.1 0 143.2-60.3 143.2-134.4 0-74.2-64.1-134.4-143.1-134.4H347.4c-79.1 0-143.3 60.3-143.3 134.4z m51.1-0.9c0-50.4 43.7-91.4 97.4-91.4h311.1c53.7-0.1 97.4 40.8 97.4 91.3v0.1c0 50.4-43.7 91.4-97.4 91.4h-311c-53.7 0.1-97.4-40.8-97.4-91.3-0.1 0-0.1-0.1-0.1-0.1z"  horiz-adv-x="1024" />

    
    <glyph glyph-name="huiyuanchaxunzhuanhui" unicode="&#59356;" d="M122.9 518.6c20.1-9.2 43.8-0.4 53 19.7C248.8 697.6 425.7 784.2 596.5 744a369.074 369.074 0 0 0 270.4-256.3l-70.8-0.3 114.7-196.9L1024 488.4l-74.5-0.3c-17.9 75.4-54.9 144.9-108.1 202.2-60.8 65.6-139.2 111.1-226.6 131.6-51.9 12.2-104.7 15.1-157.2 8.7-50.6-6.1-99.5-20.8-145.4-43.6-92.2-45.8-166.4-122.3-209-215.4-9.2-20.1-0.3-43.8 19.7-53zM900.9 249.4c-20.1 9.2-43.8 0.4-53-19.7-73-159-249.7-245.4-420.4-205.3a369.074 369.074 0 0 0-270.4 256.3l70.8 0.3-114.7 196.8L0 280.1l74.5 0.3c17.9-75.4 55-144.9 108.1-202.2 60.9-65.6 139.2-111.2 226.7-131.7 34-8 68.5-12 103-12 18 0 36 1.1 54 3.3 50.6 6.2 99.5 20.8 145.4 43.6 92.1 45.7 166.3 122.1 209 215 9.1 20 0.3 43.8-19.8 53zM674.2 528c-3.2 27.1-18.3 42.2-45.4 45.4-15.9-1.6-27.9-8-35.8-19.1l-88.4-126.6-88.4 126.6c-9.6 11.1-21.5 17.5-35.8 19.1-28.7-3.2-43.8-18.3-45.4-45.4-1.6-11.2 1.6-19.9 9.6-26.3L421 394.2h-50.2c-17.5-3.2-27.1-11.9-28.7-26.3 0-17.5 9.6-26.3 28.7-26.3h88.4V301h-88.4c-17.5-3.2-27.1-11.9-28.7-26.3 0-17.5 9.6-26.3 28.7-26.3h88.4v-74.1c0-27.1 15.1-40.6 45.4-40.6 28.7 0 43.8 13.5 45.4 40.6v74.1h88.4c17.5 0 27.1 8.7 28.7 26.3-3.2 14.3-12.8 23.1-28.7 26.3H550v40.6h88.4c17.5 0 27.1 8.7 28.7 26.3-3.2 14.3-12.8 23.1-28.7 26.3h-50.2l76.4 107.5c6.3 6.3 9.6 15.1 9.6 26.3z"  horiz-adv-x="1024" />

    
    <glyph glyph-name="morenyinhangqia" unicode="&#59357;" d="M585 661l3.3-6.9 5.8 5.9-10.7 10.6-18.6-18.8c7.3 3.1 14 6.2 20.2 9.2zM561 648l-5.7-5.8 10.7-10.6 15.8 16c-5.8-2.8-11.7-5.3-17.4-7.7L561 648zM546.2 663.9l-9.1 3.9c3.4 6 6.4 11.9 9.1 17.6l-17-17.3 10.7-10.6 6.3 6.4zM567.9 685.8l-10.7 10.6-5.8-5.9 6.9-3c-2.6-6.5-5.6-13.4-9-20.7l18.6 19zM593.5 797.8H130.9l796.3-796.3V464L593.5 797.8z m133.2-256.9l24.3-2.3c0.3-19.9 0.3-34.7-0.1-44.3l-27.2 2.3c1.1 10.9 2.1 25.7 3 44.3z m-293.2 65.6c10.2 4.1 20.8 9.2 31.9 15.5l7-14.4c-11.3-5.9-22.1-11-32.4-15.3l-6.5 14.2z m24.3-27.2c6 8.4 11.6 17.4 16.7 27.1l12.5-7.5c-4.8-9.5-10.1-18.8-15.8-27.8l-13.4 8.2z m21.8-15.8c4.8 9.9 9 19.7 12.7 29.3l13.2-6c-3.9-11-7.7-21-11.5-29.7l-14.4 6.4z m97.8-73.4c-8-1.5-17.3-3.6-27.9-6.3-1.7 22 6.8 47 25.5 75-23.8-17.6-49.5-26.5-77.2-26.6 1.4 9 2.2 18.2 2.4 27.3 2-0.1 3.9-0.2 5.8-0.3 1.9 6.8 3.3 13.8 4.4 20.8l12.7-3.6c-20.5 17.9-41.4 35.4-62.5 52.6l12.9 16.5 28.7-26.2 7.3 7.4-24.5 24.2 12.2 12.3 24.4-24.1 6.6 6.7-23 22.7 51.3 51.9 61.5-60.7-51.3-51.9-23 22.7-6.6-6.6 24.7-24.4-12.2-12.3-24.7 24.4-6.6-6.7 28.6-25.2c-4.8-3.7-9.4-7.7-13.8-11.9l-8.9 7.7c-0.6-5.1-1.5-10.1-2.6-15.1 20.4 2.7 42.7 14.5 67 35.5l-14 13.8 16.9 17.1 14.9-14.7c11.6 11.4 23.2 22.9 34.6 34.5l17.3-17c-15.1-15.3-26.7-26.8-34.7-34.4l26.2-25.8-16.9-17.1-24 23.7c-23-30.5-33.5-59.1-31.5-85.9zM670 611.9c-2.1-10.9-4.8-21.6-8-32.2l-21.1 6.9c4.4 11.7 7.9 22.6 10.6 32.4l18.5-7.1zM627.3 436c6.3 0.3 12.3 3 16.7 7.5l43.1 43.7-13.4 13.2 16.8 17 30.8-30.4-46.2-46.8 29.1-1.1c-4-6.8-7.5-13.9-10.4-21.3-23.4 0.2-46.3-1-68.6-3.5l2.1 21.7z m164.8 1.7c-35-42.5-47.9-81.2-38.5-116.1-12.5-2.5-23.3-4.8-32.6-7.1-2.7 32.1 4 60.5 20.1 85.1-26.5-14.5-56.6-21-86.8-18.9 2.9 10.1 5 20.5 6.4 31.1 27.9-2.7 50.4 0.5 67.6 9.8 17.2 9.2 42.1 30.7 74.8 64.3l19.5-19.2c-10.8-10.9-21-20.5-30.5-29z"  horiz-adv-x="1024" />

    
    <glyph glyph-name="xiala" unicode="&#59358;" d="M166.1 626.6h692.5c38.3 0 69.3-30.8 69.3-69.1 0-17.8-6.8-33.9-17.8-46.1l-342.5-457c-22.9-30.3-66.2-36.6-96.7-13.7-5.4 3.9-10 8.6-13.7 13.7L111 516.3c-22.7 30.3-16.6 73.7 13.9 96.4 12.4 9.5 26.8 13.9 41.2 13.9z"  horiz-adv-x="1024" />

    
    <glyph glyph-name="cebianlanshoucunbaobiao" unicode="&#59359;" d="M927.6 649.2c-0.3 2.8-0.8 5.5-1.3 8.1-0.6 2.7-1.3 5.5-2.2 8.3-0.9 2.6-1.9 5.2-2.9 7.4-1.1 2.5-2.3 5-3.8 7.5-1.4 2.6-3 5-4.2 6.6-1.7 2.5-3.4 4.8-5.7 7.3-1.8 2-3.7 4-5.4 5.7-2 1.9-4.2 3.8-6.6 5.6-2.2 1.8-4.6 3.4-6.9 4.9-2.3 1.5-4.8 2.9-7.6 4.4-2.6 1.3-5.2 2.5-7.9 3.6-2.7 1-5.4 2-8.7 3-2.8 0.8-5.7 1.5-8.4 2-3 0.6-6.1 1.1-9.3 1.4-3.1 0.3-6.1 0.4-9.2 0.4h-60.7c-13.2 0-23.9-9.6-23.9-21.5s10.7-21.5 23.9-21.5h60.7c1.4 0 2.9-0.1 4.3-0.2 1.3-0.1 2.7-0.3 4.1-0.6 1.4-0.3 2.9-0.6 3.8-0.9 1.4-0.4 2.8-0.8 4.1-1.4 1.3-0.5 2.6-1.1 3.3-1.5 1.3-0.7 2.7-1.4 3.9-2.2 1.1-0.7 2.2-1.6 3.2-2.3 1-0.8 2-1.7 3.1-2.7 1.1-1 2-2.1 2.8-2.9 0.8-0.9 1.4-1.8 2.7-3.5 0.8-1.1 1.4-2.1 2-3.1 0.7-1.2 1.3-2.4 2-4 0.6-1.2 1.1-2.4 1.4-3.5 0.4-1.3 0.8-2.7 1.1-4.2 0.2-1.5 0.6-2.9 0.7-4.4 0.2-1.5 0.2-2.9 0.2-4.4v-619.7c0-1.5-0.1-3-0.2-4.4-0.2-1.4-0.4-2.9-0.8-4.5-0.2-1.3-0.7-2.6-1-3.8-0.3-1.3-0.9-2.5-1.6-4.1-0.6-1.2-1.1-2.4-1.8-3.5-0.6-1.1-1.2-2.1-2.4-3.8-0.7-1-1.4-1.9-2.1-2.7-1-1-1.9-2-3.2-3.3-1-0.9-2-1.8-2.8-2.4-1.1-0.8-2.2-1.6-3.4-2.4-1.1-0.7-2.3-1.4-3.7-2.1-1.1-0.6-2.2-1.1-3.8-1.7-1.1-0.5-2.2-0.8-3.8-1.3-1.3-0.4-2.7-0.7-3.7-0.9-1.3-0.2-2.8-0.4-4.6-0.6-1.3-0.2-2.6-0.2-3.9-0.2H188.5c-1.3 0-2.6 0-4.3 0.2-1.4 0.1-2.9 0.3-3.8 0.5-1.3 0.2-2.7 0.5-4.6 1.1-1.1 0.3-2.2 0.7-3.4 1.2-1.2 0.5-2.4 1-3.9 1.8-1.1 0.6-2.2 1.2-3.4 2-1 0.6-2 1.4-3.2 2.3-1.1 0.9-2.1 1.8-3.1 2.7-1 1-1.9 2-2.9 3.1-0.9 1-1.7 2.1-2.6 3.3-0.8 1.1-1.4 2.2-2 3.2-0.8 1.3-1.4 2.7-1.9 3.5-0.6 1.3-1.1 2.6-1.7 4.4-0.3 1.1-0.7 2.3-1 3.8-0.2 1.3-0.4 2.7-0.7 4.3-0.1 1.4-0.2 2.8-0.2 4.3V640.4c0 1.5 0.1 3 0.3 4.6 0.1 1.4 0.3 2.8 0.7 4.3 0.2 1.3 0.6 2.5 1.1 4.1 0.4 1.3 0.9 2.6 1.2 3.3 0.7 1.4 1.4 2.8 2 3.9 0.8 1.2 1.3 2.3 2.3 3.6 0.8 1.1 1.6 2.1 2.4 3.1 1 1.1 2 2.1 2.8 2.9 1 1 2 1.9 3.4 3 0.9 0.8 1.9 1.5 3.2 2.3 1.1 0.7 2.3 1.4 3.4 2 1.2 0.6 2.4 1.2 3.6 1.6 1.3 0.5 2.7 1 3.8 1.3 1.3 0.4 2.8 0.7 4.1 1 1.3 0.3 2.7 0.5 4 0.6 1.4 0.1 2.9 0.2 4.3 0.2h60.7c13.2 0 23.9 9.6 23.9 21.5s-10.7 21.5-23.9 21.5h-60.6c-3.2 0-6.3-0.1-9.3-0.4-3.1-0.3-6.1-0.7-9.1-1.3s-5.9-1.3-8.9-2.2c-2.8-0.8-5.6-1.8-8.3-2.9-2.8-1.1-5.4-2.3-8.1-3.7-2.6-1.3-5-2.8-7.1-4.1-2.6-1.6-5-3.3-6.9-4.8-2.2-1.8-4.3-3.6-6.7-5.8-1.9-1.8-3.8-3.8-5.6-5.8-1.9-2.1-3.7-4.3-5.1-6.4-1.8-2.3-3.2-4.7-4.8-7.4-1.2-2.2-2.4-4.5-3.8-7.4-1.1-2.5-2.1-5-2.8-7.2-1-2.8-1.8-5.7-2.3-8.4-0.7-2.8-1.1-5.6-1.3-8.2-0.3-2.8-0.6-5.7-0.6-8.6v-619.5c0-2.9 0.1-5.8 0.4-8.4 0.3-2.9 0.8-5.7 1.3-8.2 0.7-2.9 1.4-5.8 2.2-8.1 0.9-2.6 1.9-5.2 3.2-8.3 1.1-2.4 2.3-4.7 3.7-7.1 1.4-2.4 2.9-4.8 4.4-7 1.7-2.3 3.3-4.4 5.1-6.4 1.9-2.1 3.8-4.2 5.8-6.1 2.1-1.9 4.2-3.7 6.2-5.3 2.2-1.8 4.7-3.6 7-5 2.4-1.6 5-3 7.3-4.2 2.7-1.4 5.3-2.6 8-3.7 2.9-1.2 5.9-2.3 8.2-2.9 2.8-0.9 5.8-1.6 9.3-2.3 3-0.5 5.9-1 8.4-1.2 3.2-0.4 6.4-0.5 9.8-0.5h649.1c3.2 0 6.4 0.2 9.2 0.6 3.1 0.2 6.1 0.7 9.3 1.3 3 0.6 5.9 1.3 8.3 2 3 0.9 6 1.9 8.6 3 2.8 1.1 5.6 2.3 8 3.6 2.7 1.3 5.1 2.7 7.6 4.3 2.3 1.5 4.7 3.2 7.1 5.1 2.2 1.7 4.3 3.6 6 5.2 2.1 1.9 4 3.9 6 6.2 1.9 2.2 3.7 4.5 4.9 6.2 1.8 2.3 3.3 4.8 4.8 7.3 1.3 2.4 2.7 4.9 3.6 7.1 1.1 2.6 2.2 5.2 3.1 8.1 0.8 2.6 1.6 5.4 2.1 7.9 0.6 2.7 1 5.4 1.3 8.2 0.3 2.8 0.4 5.7 0.4 8.6V640.6c0.5 2.9 0.4 5.8 0.1 8.6zM361.1 610.7l1.2 0.1c13.1 0.3 208 0.1 278.6 0h24.9c15.2 0 30.9 7 40.8 18.3 9.9 11.2 13.1 25.4 9.2 39.9l-12 44.5c-4.4 16.4-25.4 40.9-65.8 40.9h-31.6c-3 10.5-8.8 29.8-11.3 38.4-5.4 18.8-30.9 39.3-62.2 39.4h-40.3c-30.7 0-55.9-20.2-61.8-39.1-2.4-8.2-7.9-28.1-10.8-38.5v-0.2h-38.8c-27 0-53.9-21.9-58.9-40.9-2.1-8-5.8-21.1-10-36.3l-2.2-8c-4-14.2-0.7-28.3 9.1-39.7 10.1-11.6 26.2-18.8 41.9-18.8z m-4.6 47.9l2.2 8c4.2 15.2 7.9 28.6 9.7 35.5 1.8 3.5 9.6 8.9 12.9 9h27.1l15.6 0.1c20.2 0 36.3 11.1 41 28.1l1.3 4.7c2.8 10 8.1 29.3 10.3 36.7 1.1 2.2 7.8 8.1 16 8.1h40.1c8.6 0 15.4-5.7 16.3-7.4 2.9-10 10.1-34.2 12.4-42.6 4.8-16.3 20.9-27.8 39.3-27.8h37.7c15.3 0 19-8 19-8l12-44.4c0.4-2.1 0-2.7-0.2-3-1-1.2-2.9-2-3.4-2.1H641c-71 0.1-266.7 0.3-279.8 0-0.9 0-3 0.8-4.2 2.2-0.6 0.9-1 1.5-0.5 2.9zM674.4 286.9c6.7 0 12.9 2.3 17.6 6.5 4.4 4 6.8 9.2 6.8 14.8 0 5.5-2.3 10.8-6.8 14.7-4.7 4.2-10.9 6.5-17.6 6.5H536.3l-0.7 5.6 155.8 140.4c9.6 8.5 9.8 22.2 0.6 30.5-4.3 3.9-10.1 6.1-16.4 6.1-6.6 0-12.8-2.3-17.6-6.6L513.1 374.8 368 505.4c-4.7 4.3-10.9 6.6-17.4 6.6-6.2 0-12.1-2.1-16.4-6.1-4.3-3.9-6.8-9.2-6.8-14.8 0-5.9 2.6-11.5 7.3-15.7l154.8-138.2v-7.7H351.7c-6.7 0-12.9-2.3-17.6-6.5-4.4-4-6.8-9.2-6.8-14.7 0-11.7 10.9-21.2 24.3-21.2h137.7v-67H351.6c-6.7 0-12.9-2.3-17.6-6.5-4.4-4-6.8-9.2-6.8-14.7 0-11.7 10.9-21.2 24.3-21.2h137.7V90c0-12.1 10.6-21.9 23.6-21.9 13 0 23.6 9.8 23.6 21.9v87.6h137.8c6.7 0 12.9 2.3 17.6 6.5 4.4 4 6.8 9.2 6.8 14.7s-2.4 10.7-6.8 14.7c-4.4 4.1-10.7 6.4-17.3 6.4H536.6v67h137.8z"  horiz-adv-x="1024" />

    
    <glyph glyph-name="cebianlanyouxijilubaobiao" unicode="&#59360;" d="M873.3 19.8H148.6V744.5h414.1V796.6H96.5v-828.9h828.9V433.9h-52.1zM342.5 327.5l-7.3-25.7-31.6-127 124.8 33.8h2.2l28.6 8.1 18.4 17.6 427.3 428c30.8 30.8 30.8 80 0 110.9-31.6 31.6-80.8 31.6-111.6 0L366 345.8l-23.5-18.3zM827 737.2c10.3 10.3 25.7 10.3 36 0s10.3-25.7 0-36.7l-36-36-36.7 36 36.7 36.7zM389.5 289.3l2.2 10.3 362.7 362.7 36-36.7-359.8-359.8-13.2-2.9h-5.1l-33-10.3 10.2 36.7z"  horiz-adv-x="1024" />

    
    <glyph glyph-name="cebianlanzonghebaobiao" unicode="&#59361;" d="M941.7-1.8L761.9 178c25.2 30.4 45.8 63.9 60.8 99.9 20.6 49.5 31.4 101.5 31.4 155.6 0 54.1-10.3 106.1-31.4 155.6-20.1 47.4-48.9 90.2-85.5 126.7-36.6 36.6-79.3 65.4-126.7 85.5C561 822 508.9 832.8 454.9 832.8S348.7 822.5 299.3 801.4c-47.4-20.1-90.2-48.9-126.7-85.5-36.6-36.6-65.5-79.4-85.6-126.8-21.1-49.5-31.4-102-31.4-155.6C55.6 380 65.9 327.4 87 278c20.1-47.4 48.9-90.2 85.5-126.7 36.6-36.6 79.3-65.4 126.7-85.5 49.5-20.6 101.5-31.4 155.6-31.4s106.1 10.3 155.6 31.4c36.6 15.5 70.1 36.1 100.5 61.3l179.8-179.8c7.2-7.2 16.5-10.3 25.8-10.3s18.5 3.6 25.8 10.3c13.3 13.8 13.3 37-0.6 50.9zM454.9 106.4c-180.3 0-327.1 146.8-327.1 327.1s146.8 327.1 327.1 327.1S782 613.8 782 433.5 635.2 106.4 454.9 106.4zM676.9 543.3c-12.4 10.8-31.4 9.8-42.8-2.6L507.9 397l-90.7 140.1c-5.2 7.7-13.4 12.9-22.7 13.4-9.3 0.5-18.5-2.6-24.7-9.8L211.7 367.6c-11.3-12.4-10.3-31.4 2.1-42.8 5.7-5.2 12.9-7.7 20.1-7.7 8.2 0 16.5 3.1 22.2 9.8L388 471.7 479.6 331c5.2-7.7 13.9-12.9 23.2-13.4 9.3-0.5 18.5 3.1 24.7 10.3l152 173.6c11.3 11.9 9.8 30.4-2.6 41.8z"  horiz-adv-x="1024" />

    
    <glyph glyph-name="cebianlanxianshangqukuan" unicode="&#59362;" d="M656.4 407.6c18.5 0 33.5 15 33.5 33.5s-15 33.5-33.5 33.5h-88.5l37.3 64.6c7.5 13.3 3 30.2-10.2 37.9-13.3 7.8-30.4 3.3-38.2-10l-39.1-67.7c-4.3-7.6-4.7-16.8-1-24.8h-44.5c3.6 8 3.2 17.2-1 24.8l-39.1 67.7c-7.7 13.2-24.6 17.7-37.9 10.2-13.4-7.6-18.1-24.7-10.5-38.1l37.3-64.6h-99.7c-18.5 0-33.5-15-33.5-33.5s15-33.5 33.5-33.5h134v-67H366c-18.5 0-33.5-15-33.5-33.5s15-33.5 33.5-33.5h89.4v-78.2c0-18.5 15-33.5 33.5-33.5s33.5 15 33.5 33.5v78.2h89.4c18.5 0 33.5 15 33.5 33.5s-15 33.5-33.5 33.5h-89.4v67h134zM644.6 35.5c-4.6-0.2-9.1-0.9-13.5-2.2-45.5-18.4-94.1-27.8-143.1-27.8-210 0.3-380 170.7-379.8 380.7 0.3 210 170.7 380 380.7 379.8 210-0.3 380-170.7 379.8-380.7 0-9.2-1.4-38.4-1.4-38.4 0.1-18.5 15.1-33.4 33.5-33.5 42.8 0 34.9 65.4 34.9 71.9 0 56.5-10.7 112.5-31.5 165-91.1 229.2-350.8 341.2-580 250.2S-17.1 449.8 74 220.6s350.7-341.2 579.9-250.2c13.8 4.5 23.4 17.1 24.1 31.6 0.1 18.5-14.9 33.5-33.4 33.5zM972 151.1l-91.8 91.8-1.2 1.2c-11.2 10.6-28.9 10.1-39.5-1.2s-10.1-28.9 1.2-39.5l41.5-41.5H656.4c-18.5 0-33.5-15-33.5-33.5s15-33.5 33.5-33.5h225.4l-41.3-41.3c-10.9-10.9-10.9-28.6 0-39.5 10.9-10.9 28.6-10.9 39.5 0l91.8 91.8c4.2 6.9 7.1 14.6 8.6 22.5-1.9 7.8-4.7 15.5-8.4 22.7z"  horiz-adv-x="1024" />

    
    <glyph glyph-name="cebianlanzongbaobiao" unicode="&#59363;" d="M317.7 477.3c-10.3 0-18.7-8.4-18.7-18.7v-149.4c0-10.3 8.4-18.7 18.7-18.7 10.3 0 18.7 8.4 18.7 18.7V458.6c-0.1 10.3-8.4 18.7-18.7 18.7zM941.8-0.5L755.1 186.3c-1.4 1.4-2.9 2.7-4.5 3.8 56.2 67.8 89.9 154.9 90 249.8 0 216.6-175.6 392.2-392.2 392.2S56.2 656.5 56.2 439.9s175.6-392.2 392.2-392.2c94.9 0.1 182 33.9 249.8 90 1.1-1.6 2.4-3.1 3.8-4.5l186.8-186.8c7-7 16.6-10.9 26.5-10.8 9.9-0.1 19.5 3.8 26.5 10.8l0.2 0.2c14.6 14.7 14.5 38.4-0.2 52.9zM448.4 122.4c-175.4 0-317.5 142.2-317.5 317.5S273 757.4 448.4 757.4c175.3-0.2 317.3-142.2 317.5-317.5 0-175.3-142.1-317.5-317.5-317.5zM448.4 626.7c-10.3 0-18.7-8.4-18.7-18.7v-298.8c0-10.3 8.4-18.7 18.7-18.7 10.3 0 18.7 8.4 18.7 18.7V608c0 10.3-8.4 18.7-18.7 18.7zM579.1 552c-10.3 0-18.7-8.4-18.7-18.7v-224.1c0-10.3 8.4-18.7 18.7-18.7 10.3 0 18.7 8.4 18.7 18.7V533.3c0 10.3-8.3 18.7-18.7 18.7z"  horiz-adv-x="1024" />

    
    <glyph glyph-name="cebianlandisanfangzhuanzhangjilu" unicode="&#59364;" d="M908.9 707.3c-11.9 9.6-27.4 15-43.6 15-1.5 0-2.9 0-4.4-0.1-0.9-0.1-11.1-0.7-27.3-0.7-26.7 0-78.6 1.5-127.8 12.1-63.5 13.6-136.9 76.6-158.2 89.2-10.7 6.2-23.1 9.4-35.5 9.4-12.3 0-24.7-3.2-35.5-9.4-2.6-1.5-79.3-73.1-154.4-89.2-49.2-10.6-102-12.1-128.7-12.1-16 0-26.3 0.6-27.3 0.7-1.4 0.1-2.9 0.1-4.3 0.1-16.1 0-31.8-5.4-43.7-15-12.9-10.6-20.2-25.2-20.2-40.6v-139.3c0-514.9 386.4-581.1 402.8-583.7 3.8-0.6 7.5-0.8 11.3-0.8 3.8 0 7.6 0.3 11.3 0.8 16.4 2.6 405.7 68.9 405.7 583.7V666.6c0.2 15.4-7.3 30.3-20.2 40.7z m-48.7-186.9c0-468-347.9-522-347.9-522s-345.2 54-345.2 522V657.9s11.9-0.8 31.2-0.8c33 0 88.5 2.2 141.8 13.6 87.2 18.7 172.1 95.7 172.1 95.7s88.7-77 175.9-95.7c53.3-11.4 107.9-13.6 140.9-13.6 19.2 0 31.2 0.8 31.2 0.8v-137.5zM342 251.3zM579.3 387.8c63.2 17.5 95.8 55.9 97.3 115.1-6.4 81.5-63.1 134.6-159.7 137.8-93.4 0-165.8-57.8-175-149.6l69.7-5c9.4 59.2 52.1 88.8 105.9 88.8 53.8-1.5 81.5-28 83-79.1-1.4-55.8-38.6-83.8-111.4-83.8h-35.6v-57.5h45.1c77.5 0 116.4-27.8 116.4-83.9-1.5-60.8-34.1-92-97.3-93.5-57 0-97.6 28.8-108.7 89.6l-71.1-3.6c4.2-86.8 82.9-163.5 179.1-162.1 110.7 3.2 169.1 73.5 173.8 164.6-4.8 67.1-41.9 107.8-111.5 122.2z"  horiz-adv-x="1024" />

    
    <glyph glyph-name="cebianlancunqukuanzonghui" unicode="&#59365;" d="M918.4 374.7H504.6c-6.8 0-12.4 5.6-12.4 12.4V800.8c0 7.1-5.8 12.7-12.8 12.4C243.1 806.4 53.7 612.6 53.7 374.7c0-242.7 196-438.6 438.6-438.6 237.9 0 431.7 189.5 438.5 425.8 0.3 7-5.3 12.8-12.4 12.8z m-59.6-66.3c-4.9-26.9-12.7-53.1-23.3-78.5-18.8-44.3-45.6-84.1-79.8-118.3-34.2-34.2-74.1-61.1-118.3-79.8-45.8-19.4-94.6-29.3-144.9-29.3-50.3 0-99.1 9.9-144.9 29.3-44.3 18.8-84.1 45.6-118.3 79.8-34.2 34.2-61.1 74.1-79.8 118.3-19.4 45.8-29.2 94.6-29.2 144.9s9.9 99.1 29.2 144.9C168.2 564 195 603.8 229.2 638s74 61.1 118.2 79.9c25.3 10.7 51.5 18.6 78.4 23.3V321c0-6.8 5.6-12.4 12.4-12.4h420.5v-0.2zM543.5 859.4c-7.1 0.2-12.9-5.4-12.9-12.4v-413.3c0-6.8 5.6-12.4 12.4-12.4h413.4c7.1 0 12.7 5.8 12.4 12.9-6.6 231.7-193.4 418.4-425.3 425.2zM597 487.5V787.3c26.9-4.9 53.1-12.7 78.4-23.3 44.3-18.8 84.1-45.5 118.3-79.8 34.2-34.2 61.1-74 79.8-118.2 10.7-25.3 18.6-51.5 23.3-78.4H597z"  horiz-adv-x="1024" />

    
    <glyph glyph-name="paixukongjian" unicode="&#59366;" d="M675.1 164.8H368.5c-6.4 0-12.8-1.7-18.3-5.3-13.5-8.7-16.2-25.2-6.2-36.7l153.4-176c1.6-2 3.7-3.7 6.1-5.2 13.5-8.7 32.6-6.3 42.8 5.2l151.6 174.1c4.9 4.7 7.9 10.8 7.9 17.6 0 14.6-13.7 26.3-30.7 26.3zM368 603.6h306.6c6.4 0 12.8 1.7 18.3 5.3 13.5 8.7 16.2 25.2 6.2 36.7l-153.4 176c-1.6 2-3.7 3.7-6.1 5.2-13.5 8.7-32.6 6.3-42.8-5.2L345.2 647.5c-4.9-4.7-7.9-10.8-7.9-17.6 0-14.6 13.7-26.3 30.7-26.3zM99.9 520.1h826.5v-87.9H99.9zM99.9 336.8h826.5v-87.9H99.9z"  horiz-adv-x="1024" />

    
    <glyph glyph-name="cebianlanyinhangqia1" unicode="&#59367;" d="M804.1 729.1H219.4c-85.5 0-155.1-69.6-155.1-155.2v-390.6c0-85.6 69.6-155.2 155.1-155.2h584.8c85.6 0 155.2 69.6 155.2 155.2V573.9c-0.1 85.6-69.7 155.2-155.3 155.2zM887 190.3c0-50.4-41-91.3-91.4-91.3H229.8c-50.4 0-91.3 41-91.3 91.3v378c0 50.4 41 91.3 91.3 91.3h565.9c50.4 0 91.4-41 91.4-91.3v-378zM700.6 511.8c0 16.8-13.6 30.4-30.4 30.4H250c-16.8 0-30.4-13.6-30.4-30.4 0-16.8 13.6-30.4 30.4-30.4h420.3c16.7 0 30.3 13.6 30.3 30.4zM520.4 403.4H250c-16.8 0-30.4-13.6-30.4-30.4 0-16.8 13.6-30.4 30.4-30.4h270.4c16.8 0 30.4 13.6 30.4 30.4 0 16.8-13.6 30.4-30.4 30.4zM739.9 301.2c-31.3 0-56.8-25.4-56.8-56.8 0-31.3 25.4-56.8 56.8-56.8 31.3 0 56.8 25.4 56.8 56.8s-25.4 56.8-56.8 56.8z"  horiz-adv-x="1024" />

    
    <glyph glyph-name="cebianlanyouhuijilu" unicode="&#59368;" d="M933.9 481.6c24.2 16 24.8 28.3 24.8 49.7V680.4c0 41.2-33.4 74.5-74.5 74.5H138.7c-41.2 0-74.5-33.4-74.5-74.5v-149.1c0-22.3 1.6-37.1 24.8-49.7 33.9-15.8 74.5-47.8 74.5-99.4 0-67-42.1-88.8-73.1-99.3-21.8-13.6-26.3-36.1-26.3-49.8V84c0-41.2 33.4-74.5 74.5-74.5h745.5c41.2 0 74.5 33.4 74.5 74.5V233.1c0 27.1-6.2 35.7-24.8 49.7-54.3 28-74.5 52.9-74.5 99.4 0.1 46.5 19.1 69.6 74.6 99.4z m-24.8-239.4v-133.4c0-27.4-22.2-49.7-49.7-49.7H163.6c-27.4 0-49.7 22.3-49.7 49.7V242.2c57.8 20.5 99.4 75.1 99.4 140 0 64.8-41.6 119.4-99.4 140V655.6c0 27.4 22.2 49.7 49.7 49.7h695.8c27.4 0 49.7-22.2 49.7-49.7v-133.4c-57.8-20.5-99.4-75.1-99.4-140s41.6-119.5 99.4-140zM648.2 431.9h-93.8l101.8 109.4c4.4 4.8 4.4 12.6 0 17.4l-15.9 17.4c-4.4 4.8-11.5 4.8-15.9 0l-113-121.3-113 121.4c-4.4 4.8-11.5 4.8-15.8 0l-15.8-17.3c-4.4-4.8-4.4-12.5 0-17.3l102.1-109.7h-94.1c-6.9 0-12.4-5.6-12.4-12.4v-24.9c0-6.9 5.6-12.4 12.4-12.4h111.8v-49.7H374.8c-6.9 0-12.4-5.6-12.4-12.4v-24.8c0-6.9 5.6-12.4 12.4-12.4h111.8v-87c0-6.9 5.6-12.4 12.4-12.4h24.8c6.9 0 12.4 5.6 12.4 12.4v87H648c6.9 0 12.4 5.6 12.4 12.4V320c0 6.9-5.6 12.4-12.4 12.4H536.4v49.7h111.8c6.9 0 12.4 5.6 12.4 12.4v24.9c0 6.9-5.6 12.5-12.4 12.5z"  horiz-adv-x="1024" />

    


  </font>
</defs>
</svg>
